<svg xmlns="http://www.w3.org/2000/svg" width="254.281" height="103.541" viewBox="0 0 254.281 103.541">
  <g id="Group_24" data-name="Group 24" transform="translate(-178.895 -446.353)">
    <path id="Path_51" data-name="Path 51" d="M199.308,454.22H412.762a12.547,12.547,0,0,1,12.472,13.916l-6.888,62.714a12.546,12.546,0,0,1-12.472,11.177H206.2a12.546,12.546,0,0,1-12.471-11.177l-6.888-62.714A12.547,12.547,0,0,1,199.308,454.22Z" fill="gray"/>
    <path id="Path_52" data-name="Path 52" d="M306.035,485.357c-46.218,0-87.794-4.91-116.685-12.735l4.374,39.825A12.546,12.546,0,0,0,206.2,523.625h199.68a12.546,12.546,0,0,0,12.471-11.178l4.374-39.825C393.829,480.447,352.253,485.357,306.035,485.357Z" opacity="0.1"/>
    <path id="Path_53" data-name="Path 53" d="M412.762,454.22a12.547,12.547,0,0,1,12.472,13.916l-6.888,62.714a12.546,12.546,0,0,1-12.472,11.177H206.2a12.546,12.546,0,0,1-12.472-11.177l-6.888-62.714a12.547,12.547,0,0,1,12.472-13.916H412.762m0-7.867H199.308a20.413,20.413,0,0,0-20.292,22.642l6.887,62.714A20.389,20.389,0,0,0,206.2,549.894H405.874a20.389,20.389,0,0,0,20.293-18.185l6.887-62.714a20.413,20.413,0,0,0-20.292-22.642Z" fill="#fff"/>
    <path id="Path_54" data-name="Path 54" d="M412.762,458.153a8.614,8.614,0,0,1,8.562,9.554l-6.888,62.713a8.6,8.6,0,0,1-8.562,7.673H206.2a8.6,8.6,0,0,1-8.562-7.673l-6.888-62.713a8.614,8.614,0,0,1,8.562-9.554H412.762m0-3.933H199.308a12.547,12.547,0,0,0-12.472,13.916l6.888,62.714A12.546,12.546,0,0,0,206.2,542.027H405.874a12.546,12.546,0,0,0,12.472-11.177l6.888-62.714a12.547,12.547,0,0,0-12.472-13.916Z"/>
  </g>
</svg>
