<svg xmlns="http://www.w3.org/2000/svg" xmlns:xlink="http://www.w3.org/1999/xlink" width="116.201" height="103.541" viewBox="0 0 116.201 103.541">
  <defs>
    <radialGradient id="radial-gradient" cx="0.5" cy="0.5" r="0.537" gradientUnits="objectBoundingBox">
      <stop offset="0" stop-color="#a467c5"/>
      <stop offset="0.343" stop-color="#9a61ba"/>
      <stop offset="0.927" stop-color="#81539f"/>
      <stop offset="1" stop-color="#7e519c"/>
    </radialGradient>
  </defs>
  <g id="info_button01" transform="translate(-1763.935 -158.919)">
    <path id="Path_55" data-name="Path 55" d="M1784.349,166.786h75.372a12.546,12.546,0,0,1,12.472,13.916l-6.887,62.714a12.546,12.546,0,0,1-12.472,11.177h-61.6a12.546,12.546,0,0,1-12.472-11.177l-6.887-62.714A12.546,12.546,0,0,1,1784.349,166.786Z" fill="url(#radial-gradient)"/>
    <path id="Path_56" data-name="Path 56" d="M1822.035,219.174a66.038,66.038,0,0,1-48.224-20.856l4.953,45.1a12.546,12.546,0,0,0,12.472,11.178h61.6a12.546,12.546,0,0,0,12.472-11.178l4.953-45.1A66.038,66.038,0,0,1,1822.035,219.174Z" opacity="0.1"/>
    <path id="Path_57" data-name="Path 57" d="M1859.721,170.719a8.613,8.613,0,0,1,8.562,9.554l-6.887,62.713a8.6,8.6,0,0,1-8.562,7.673h-61.6a8.6,8.6,0,0,1-8.562-7.673l-6.887-62.713a8.613,8.613,0,0,1,8.562-9.554h75.372m0-3.933h-75.372a12.546,12.546,0,0,0-12.472,13.916l6.887,62.714a12.546,12.546,0,0,0,12.472,11.177h61.6a12.546,12.546,0,0,0,12.472-11.177l6.887-62.714a12.546,12.546,0,0,0-12.472-13.916Z"/>
    <path id="Path_58" data-name="Path 58" d="M1859.721,166.786a12.546,12.546,0,0,1,12.472,13.916l-6.887,62.714a12.546,12.546,0,0,1-12.472,11.177h-61.6a12.546,12.546,0,0,1-12.472-11.177l-6.887-62.714a12.546,12.546,0,0,1,12.472-13.916h75.372m0-7.867h-75.372a20.413,20.413,0,0,0-20.293,22.642l6.888,62.713a20.387,20.387,0,0,0,20.292,18.186h61.6a20.387,20.387,0,0,0,20.292-18.186l6.888-62.713a20.414,20.414,0,0,0-20.293-22.642Z" fill="#fff"/>
    <g id="Group_25" data-name="Group 25">
      <path id="Path_59" data-name="Path 59" d="M1822.035,183.159a27.531,27.531,0,1,0,27.531,27.53A27.53,27.53,0,0,0,1822.035,183.159Zm0,47.868a20.338,20.338,0,1,1,20.338-20.338A20.338,20.338,0,0,1,1822.035,231.027Z" fill="#f2f2f2"/>
      <rect id="Rectangle_2" data-name="Rectangle 2" width="7.233" height="21.543" rx="2.859" transform="translate(1818.419 204.389)" fill="#f2f2f2"/>
      <circle id="Ellipse_3" data-name="Ellipse 3" cx="3.616" cy="3.616" r="3.616" transform="translate(1817.685 201.752) rotate(-76.717)" fill="#f2f2f2"/>
    </g>
  </g>
</svg>
