<svg xmlns="http://www.w3.org/2000/svg" width="465" height="117.33" viewBox="0 0 465 117.33">
  <g id="PorkersLogo" transform="translate(-4.3 -6.6)">
    <g id="Group_6" data-name="Group 6" transform="translate(4.3 6.6)">
      <g id="Group_1" data-name="Group 1" transform="translate(96.806 13.171)">
        <path id="Path_1" data-name="Path 1" d="M126.074,28.862c-.485-.081-.97-.081-1.374-.162C125.1,28.781,125.508,28.781,126.074,28.862Z" transform="translate(-124.215 -24.013)" fill="#3a2f3e"/>
        <path id="Path_2" data-name="Path 2" d="M124.585,27.587a9,9,0,0,1,1.374.162c-.566-.081-.97-.081-1.374-.162m.4-4.687-.889,9.374,1.374.162.889-9.373-.485-.081-.889-.081Z" transform="translate(-124.1 -22.9)" fill="#fff"/>
      </g>
      <g id="Group_2" data-name="Group 2">
        <path id="Path_3" data-name="Path 3" d="M465.661,86.157A24.91,24.91,0,0,0,454.187,66.6a9.384,9.384,0,0,0,4.444-4.2,21.079,21.079,0,0,0,2.424-6.788,22.737,22.737,0,0,0,.081-7.757,12.523,12.523,0,0,0-5.01-8.4,6.056,6.056,0,0,0-1.616-.808,44.43,44.43,0,0,0-14.545-2.5,21.172,21.172,0,0,0-2.263.081,40.588,40.588,0,0,0-14.788,3.555,31.434,31.434,0,0,0-11.07,8.485,24.83,24.83,0,0,0-3.959,6.707,34.937,34.937,0,0,0-3.717-6.3,32.008,32.008,0,0,0-7.515-7.273,22.846,22.846,0,0,0-9.939-3.636,16.891,16.891,0,0,0-2.02-.081,20.567,20.567,0,0,0-8.808,2.02,13.253,13.253,0,0,0-4.687-2.667,23.524,23.524,0,0,0-7.677-1.212h-.485a24.839,24.839,0,0,0-8.969,1.939,14.025,14.025,0,0,0-7.919,8.4,6.026,6.026,0,0,0-.323,2.1v7.434a29.461,29.461,0,0,0-1.131-2.828A30.307,30.307,0,0,0,336.21,42.2a31.635,31.635,0,0,0-12.767-5.98,29.527,29.527,0,0,0-7.111-.808,36.606,36.606,0,0,0-8.646,1.05H307.6a30.168,30.168,0,0,0-13.01,6.3,35.764,35.764,0,0,0-8.081,9.778,43.013,43.013,0,0,0-4.283,11.394,65.475,65.475,0,0,0-1.454,10.828,73.235,73.235,0,0,0,.162,9.535l.242,2.182-3.394-4.606c-1.778-2.424-3.555-4.848-5.172-7.111-.566-.727-1.05-1.535-1.535-2.182,1.616-1.7,2.99-3.071,4.2-4.283,2.02-2.02,3.555-3.636,4.687-4.929a26.545,26.545,0,0,0,2.909-3.959,10.587,10.587,0,0,0,1.212-4.929,7.119,7.119,0,0,0-.162-1.374,59.842,59.842,0,0,0-1.939-6.222,21.92,21.92,0,0,0-4.121-6.869,16.957,16.957,0,0,0-7.6-5.01,16.574,16.574,0,0,0-4.929-.808,21.457,21.457,0,0,0-5.818.808,6.162,6.162,0,0,0-2.586,1.374l-6.3,5.656-.808-21.01a6.3,6.3,0,0,0-1.859-4.2,15.553,15.553,0,0,0-8.323-4.04,32.72,32.72,0,0,0-5.656-.485c-1.05,0-2.1.081-3.151.162a29.852,29.852,0,0,0-8.808,2.1,18.024,18.024,0,0,0-7.757,5.495,6.092,6.092,0,0,0-1.374,3.8l-.242,30.3a41.3,41.3,0,0,0-3.313-5.495,32.008,32.008,0,0,0-7.515-7.273,22.846,22.846,0,0,0-9.939-3.636,16.89,16.89,0,0,0-2.02-.081,20.568,20.568,0,0,0-8.808,2.02,13.252,13.252,0,0,0-4.687-2.667,23.524,23.524,0,0,0-7.677-1.212h-.485a24.838,24.838,0,0,0-8.969,1.939,14.025,14.025,0,0,0-7.919,8.4,27.938,27.938,0,0,0-1.778-2.5,1.257,1.257,0,0,0-.485-.646,47.055,47.055,0,0,0-36.928-17.939,48.4,48.4,0,0,0-7.677.646h0A46.755,46.755,0,0,0,87,32.421a23.312,23.312,0,0,0-5.98-9.454,32.44,32.44,0,0,0-9.616-6.06A54.016,54.016,0,0,0,60.1,13.835a74.312,74.312,0,0,0-11.232-.889h-.727a79.951,79.951,0,0,0-11.717.97A59.778,59.778,0,0,0,25.672,16.5a34.377,34.377,0,0,0-8.808,4.283,15.211,15.211,0,0,0-6.141,7.6,6.972,6.972,0,0,0-.323,2.263l3.071,79.432a6.263,6.263,0,0,0,.566,2.424c1.374,2.99,4.2,5.091,8.4,6.384a34.52,34.52,0,0,0,9.858,1.535h.97a34.366,34.366,0,0,0,9.535-1.293,17.013,17.013,0,0,0,9.535-6.141,6,6,0,0,0,1.212-4.04L52.015,79.45A53.358,53.358,0,0,0,65.267,74.2a47.054,47.054,0,0,0,46.948,44.767h1.05a46.894,46.894,0,0,0,37.979-20.848l.081,10.828a5.21,5.21,0,0,0,.242,1.616,10.966,10.966,0,0,0,8.242,7.757,25.7,25.7,0,0,0,6.626.889,21.172,21.172,0,0,0,2.263-.081,31.7,31.7,0,0,0,8.485-1.859c3.636-1.374,6.06-3.475,7.273-6.141a5.855,5.855,0,0,0,.566-2.667V78a6.644,6.644,0,0,1,1.374-3.232,3.746,3.746,0,0,1,.808-.808,9.327,9.327,0,0,1,.485,1.939,5.821,5.821,0,0,0,1.778,3.313,13.844,13.844,0,0,0,6.788,3.636,14.8,14.8,0,0,0,3.8.4,17.939,17.939,0,0,0,4.121-.485,17.072,17.072,0,0,0,7.353-3.879,7.485,7.485,0,0,0,1.131-1.131l-.242,30.464a6.124,6.124,0,0,0,1.05,3.555,16.529,16.529,0,0,0,10.5,7.273,30.1,30.1,0,0,0,10.02.4,60.642,60.642,0,0,0,7.838-1.616c.727-.242,1.212-.323,1.454-.4h.162a6.713,6.713,0,0,0,3.232-.889,6.12,6.12,0,0,0,3.071-5.172l.4-9.454,9.293,13.656a6.413,6.413,0,0,0,4.525,2.747c1.05.081,2.182.162,3.394.162.889,0,1.778,0,2.747-.081a23.219,23.219,0,0,0,8-1.939,19.81,19.81,0,0,0,7.353-5.656,17.857,17.857,0,0,0,3.313-6.545,38.1,38.1,0,0,0,6.464,6.545,37.609,37.609,0,0,0,10.666,6.06,33.446,33.446,0,0,0,11.717,2.1h1.131a36.7,36.7,0,0,0,13.737-3.313,48.3,48.3,0,0,0,13.575-9.373v2.828a5.21,5.21,0,0,0,.242,1.616,10.966,10.966,0,0,0,8.242,7.757,25.7,25.7,0,0,0,6.626.889,21.171,21.171,0,0,0,2.263-.081,31.7,31.7,0,0,0,8.485-1.859c3.636-1.374,6.06-3.475,7.273-6.141a5.855,5.855,0,0,0,.566-2.667V78a6.643,6.643,0,0,1,1.374-3.232,3.746,3.746,0,0,1,.808-.808,9.323,9.323,0,0,1,.485,1.939,5.82,5.82,0,0,0,1.778,3.313A13.843,13.843,0,0,0,391,82.844a14.8,14.8,0,0,0,3.8.4,17.939,17.939,0,0,0,4.121-.485,17.072,17.072,0,0,0,7.353-3.879,16.183,16.183,0,0,0,3.717-4.929,27.116,27.116,0,0,0,4.121,4.525,35.5,35.5,0,0,0,7.192,4.687c2.263,1.131,4.525,2.1,6.545,2.909.646.242,1.212.485,1.778.727a20.761,20.761,0,0,1-3.232-.566,30.688,30.688,0,0,1-4.525-1.374c-.081-.081-.242-.081-.323-.162a6.457,6.457,0,0,0-3.475-2.1,7.073,7.073,0,0,0-1.293-.162,6.309,6.309,0,0,0-4.444,1.859,24.445,24.445,0,0,0-3.475,4.606,22.647,22.647,0,0,0-2.586,6.626,19.64,19.64,0,0,0-.162,7.838,19.293,19.293,0,0,0,3.879,8.646,5.884,5.884,0,0,0,1.455,1.374,36.214,36.214,0,0,0,13.171,5.737,33.656,33.656,0,0,0,6.868.727,29.418,29.418,0,0,0,5.98-.566A36.816,36.816,0,0,0,448.773,115,36.115,36.115,0,0,0,463.8,97.631,29.752,29.752,0,0,0,465.661,86.157ZM454.348,46.885c.081.081.081.162.081.323-.081-.162-.081-.242-.162-.4C454.348,46.8,454.348,46.8,454.348,46.885ZM18.885,26.926a3.733,3.733,0,0,0-.566.566,1.115,1.115,0,0,1,.323-.242,1.428,1.428,0,0,1,.566-.566c.081-.081.242-.162.323-.323C19.289,26.6,19.046,26.764,18.885,26.926ZM33.106,114.2h0Zm6.869-.808h0l.97-.242Zm7.111-4.04c-.162.242-.323.4-.485.646.162-.242.323-.4.485-.646Zm1.535-90.1h0Zm2.99,19.313c-.646.081-1.374.162-2.02.242.646-.081,1.293-.162,2.02-.242Zm2.828,33.615c-.4.162-.808.242-1.212.4a12.828,12.828,0,0,0,1.616-.566C54.682,72.1,54.6,72.177,54.439,72.177ZM58.964,70.4c-.081.081-.242.081-.4.162.485-.242.97-.4,1.455-.646C59.692,70.076,59.368,70.238,58.964,70.4Zm5.01-2.747c-.162.162-.4.242-.566.4a3.42,3.42,0,0,0,.566-.4c.485-.323.889-.566,1.293-.889C64.863,67.086,64.459,67.329,63.974,67.652Zm2.5-45.736h0c.808.242,1.535.566,2.343.889A20.108,20.108,0,0,0,66.479,21.916ZM81.024,34.845a12.561,12.561,0,0,0-.646-1.859,12.561,12.561,0,0,1,.646,1.859l.242.97A8.384,8.384,0,0,0,81.024,34.845ZM162.4,112.661h-.162a.3.3,0,0,1,.242.081A.079.079,0,0,0,162.4,112.661Zm3.8.323Zm2.02-70.867h0Zm4.687.485Zm15.6,1.455h.646A.892.892,0,0,0,188.5,44.057Zm.97-.081h0Zm.889,0h.162a2.237,2.237,0,0,1,.727.081A3.624,3.624,0,0,0,190.355,43.976Zm5.01,32-.485-.242.97.485A2.69,2.69,0,0,1,195.365,75.975Zm4.444,1.05h0ZM233.829,18.6h0Zm29.413,22.06h0Zm-18.828,42.1-1.131,28.444,1.131-28.444L264.373,112.1ZM265.1,40.5h0Zm2.02,71.756h.646C267.606,112.176,267.363,112.257,267.121,112.257Zm19.717-32.726V77.349c0,1.535,0,2.909.081,4.283C286.918,80.985,286.837,80.258,286.837,79.531Zm9.293,23.838-.889-.889a18.457,18.457,0,0,0,1.778,1.778A9.221,9.221,0,0,0,296.13,103.368Zm14.626-61.089h0a1.577,1.577,0,0,1,.566-.081A1.375,1.375,0,0,0,310.756,42.279Zm5.414-.566h0Zm1.212,70.867h0Zm-.323-29.009h0a10.829,10.829,0,0,0,1.616-.081A10.829,10.829,0,0,0,317.059,83.571ZM319,41.875h.162a3.436,3.436,0,0,1,.889.162C319.645,41.956,319.321,41.956,319,41.875Zm3.636,41.049h-.162c.485-.081,1.05-.242,1.535-.323A11.016,11.016,0,0,1,322.634,82.924ZM337.1,84.379h0Zm7.757-3.555a19.349,19.349,0,0,0-2.747-1.7,20.7,20.7,0,0,0,3.636-5.576v8C345.422,81.308,345.179,81.066,344.856,80.824Zm12.283,31.838h-.162a.3.3,0,0,1,.242.081C357.219,112.661,357.219,112.661,357.139,112.661Zm3.8.323Zm2.02-70.867h0Zm4.768.485Zm15.515,1.455h.646A.885.885,0,0,0,383.239,44.057Zm.97-.081h0Zm.889,0h.162a2.237,2.237,0,0,1,.727.081A3.624,3.624,0,0,0,385.1,43.976Zm5.01,32-.485-.242.97.485Zm4.444,1.05h0Zm7.353-19.959a28.408,28.408,0,0,1,1.374,3.151C402.875,59.167,402.39,58.117,401.905,57.067ZM412.652,64.5c0-.323-.081-.646-.081-.889a12.1,12.1,0,0,0,.162,1.778A3.314,3.314,0,0,1,412.652,64.5Zm0-3.071c.081-.4.081-.727.162-1.05a10.049,10.049,0,0,1,.323-1.293A12.089,12.089,0,0,0,412.652,61.43Zm4.04-9.212a17.962,17.962,0,0,0-1.535,2.182A17.958,17.958,0,0,1,416.693,52.218Zm-1.535,18.424c.485.646,1.05,1.293,1.616,1.939A12.11,12.11,0,0,1,415.157,70.642Zm11.8,8.323a29.048,29.048,0,0,0,2.99,1.212A29.048,29.048,0,0,1,426.955,78.965Zm4.283,34.585h0ZM433.5,93.106h0c.4,0,.727-.081,1.05-.081A4.269,4.269,0,0,1,433.5,93.106Zm5.576-6.626c-.242-.485-.485-1.05-.808-1.7a5.433,5.433,0,0,0-.566-.889,16.13,16.13,0,0,1,1.7,3.313A2.87,2.87,0,0,0,439.076,86.48Zm.808-44.12Zm4.687.323a.486.486,0,0,1,.323.081c-.4-.081-.727-.081-1.131-.162C444.086,42.6,444.328,42.683,444.571,42.683Zm.808,66.827c-.323.242-.727.4-1.131.646.4-.242.808-.4,1.131-.646a18.8,18.8,0,0,0,2.1-1.374A18.8,18.8,0,0,1,445.379,109.51Zm3.636-65.938c.081,0,.162.081.242.081.323.081.566.162.889.242A4.632,4.632,0,0,0,449.015,43.572Zm2.02,17.454Zm.323-.081h0c.081,0,.162-.081.323-.081A.611.611,0,0,1,451.358,60.945Zm.4-.081h0c.081,0,.081-.081.162-.081A.25.25,0,0,0,451.762,60.864Zm.323-.242h0l.162-.162C452.167,60.541,452.167,60.622,452.086,60.622Zm.323-.323h0l.081-.081A.079.079,0,0,1,452.409,60.3Zm.566-15.353.081.081a1.115,1.115,0,0,0-.323-.242C452.813,44.784,452.894,44.865,452.975,44.946Zm0,14.707c0,.081-.081.081,0,0a1.766,1.766,0,0,0,.242-.4A1.765,1.765,0,0,1,452.975,59.652Zm.4-14.3Z" transform="translate(-5.471 -7.694)" fill="#3a2f3e"/>
        <path id="Path_4" data-name="Path 4" d="M232.819,11.287a32.72,32.72,0,0,1,5.656.485,15.553,15.553,0,0,1,8.323,4.04,6.3,6.3,0,0,1,1.859,4.2l.808,21.01,6.3-5.656a6.161,6.161,0,0,1,2.586-1.374,21.89,21.89,0,0,1,5.818-.808,14.026,14.026,0,0,1,4.929.808A16.736,16.736,0,0,1,276.7,39a25.453,25.453,0,0,1,4.121,6.869,54.359,54.359,0,0,1,1.939,6.222,7.958,7.958,0,0,1,.162,1.374,10.587,10.587,0,0,1-1.212,4.929,21.782,21.782,0,0,1-2.909,3.959c-1.131,1.293-2.667,2.909-4.687,4.929-1.131,1.131-2.586,2.586-4.2,4.283.485.727,1.05,1.454,1.535,2.182,1.616,2.263,3.394,4.687,5.172,7.111l3.394,4.606q-.121-.97-.242-2.182a52.562,52.562,0,0,1-.162-9.535,65.478,65.478,0,0,1,1.454-10.828,41.343,41.343,0,0,1,4.283-11.394,35.764,35.764,0,0,1,8.081-9.778,30.623,30.623,0,0,1,13.01-6.3h.081a41.369,41.369,0,0,1,8.646-1.05,29.528,29.528,0,0,1,7.111.808,32.678,32.678,0,0,1,12.767,5.98,29.606,29.606,0,0,1,8.485,10.666c.4.97.808,1.859,1.131,2.828V47.245a6.33,6.33,0,0,1,.323-2.1,14.025,14.025,0,0,1,7.919-8.4,24.839,24.839,0,0,1,8.969-1.939h.485a23.524,23.524,0,0,1,7.677,1.212,12.129,12.129,0,0,1,4.687,2.667,21.824,21.824,0,0,1,8.808-2.02,16.89,16.89,0,0,1,2.02.081,22.481,22.481,0,0,1,9.939,3.636A29.148,29.148,0,0,1,403,47.649a34.941,34.941,0,0,1,3.717,6.3,27.112,27.112,0,0,1,3.96-6.707,31.433,31.433,0,0,1,11.07-8.485,40.588,40.588,0,0,1,14.787-3.555,21.173,21.173,0,0,1,2.263-.081,44.79,44.79,0,0,1,14.545,2.5,6.056,6.056,0,0,1,1.616.808,12.323,12.323,0,0,1,5.01,8.4,22.717,22.717,0,0,1-.081,7.757,21.078,21.078,0,0,1-2.424,6.788,9.749,9.749,0,0,1-4.444,4.2,26.667,26.667,0,0,1,8,8.242,24.035,24.035,0,0,1,3.475,11.313,26.8,26.8,0,0,1-2.02,11.394,36.977,36.977,0,0,1-5.98,9.778,35.92,35.92,0,0,1-9.05,7.6,33.763,33.763,0,0,1-11.313,4.283,29.417,29.417,0,0,1-5.98.566,33.657,33.657,0,0,1-6.869-.727,36.215,36.215,0,0,1-13.171-5.737,5.882,5.882,0,0,1-1.455-1.374,19.293,19.293,0,0,1-3.879-8.646,21.2,21.2,0,0,1,.162-7.838,20.608,20.608,0,0,1,2.586-6.626A24.446,24.446,0,0,1,411,83.2a6.309,6.309,0,0,1,4.444-1.859,7.072,7.072,0,0,1,1.293.162,6.457,6.457,0,0,1,3.475,2.1c.081,0,.162.081.323.162a30.691,30.691,0,0,0,4.525,1.374c1.05.242,2.1.4,3.232.566-.566-.242-1.131-.485-1.778-.727q-3.151-1.212-6.545-2.909a35.5,35.5,0,0,1-7.192-4.687,21.78,21.78,0,0,1-4.121-4.525,14.989,14.989,0,0,1-3.717,4.929,17.073,17.073,0,0,1-7.353,3.879,17.94,17.94,0,0,1-4.121.485,19.525,19.525,0,0,1-3.8-.4,13.843,13.843,0,0,1-6.788-3.636A6.658,6.658,0,0,1,381.1,74.8c-.162-.97-.4-1.535-.485-1.939a3.746,3.746,0,0,0-.808.808,6.644,6.644,0,0,0-1.374,3.232v30.464a6.089,6.089,0,0,1-.566,2.667c-1.212,2.667-3.717,4.687-7.273,6.141a26.511,26.511,0,0,1-8.485,1.859,21.171,21.171,0,0,1-2.263.081,25.232,25.232,0,0,1-6.626-.889,11.09,11.09,0,0,1-8.242-7.757,5.6,5.6,0,0,1-.242-1.616v-2.828A46.675,46.675,0,0,1,331.16,114.4a38.318,38.318,0,0,1-13.737,3.313h-1.131a33.781,33.781,0,0,1-11.717-2.1,37.61,37.61,0,0,1-10.666-6.06A38.1,38.1,0,0,1,287.444,103a17.856,17.856,0,0,1-3.313,6.545,19.81,19.81,0,0,1-7.353,5.656,23.219,23.219,0,0,1-8,1.939c-.97.081-1.939.081-2.747.081-1.212,0-2.343-.081-3.394-.162a6.161,6.161,0,0,1-4.525-2.747l-9.293-13.656-.4,9.454a6.338,6.338,0,0,1-3.071,5.172,6.478,6.478,0,0,1-3.232.889h-.162c-.242.081-.727.162-1.454.4a41.883,41.883,0,0,1-7.838,1.616,28.711,28.711,0,0,1-3.717.242,33.367,33.367,0,0,1-6.3-.646,16.832,16.832,0,0,1-10.5-7.273,6.124,6.124,0,0,1-1.05-3.555l.242-30.464a14.934,14.934,0,0,1-1.131,1.131,17.072,17.072,0,0,1-7.353,3.879,17.939,17.939,0,0,1-4.121.485,19.524,19.524,0,0,1-3.8-.4,13.843,13.843,0,0,1-6.788-3.636,6.658,6.658,0,0,1-1.778-3.313c-.162-.97-.4-1.535-.485-1.939a3.746,3.746,0,0,0-.808.808,6.644,6.644,0,0,0-1.374,3.232V107.2a6.089,6.089,0,0,1-.566,2.667c-1.212,2.667-3.717,4.687-7.273,6.141a26.511,26.511,0,0,1-8.485,1.859,21.172,21.172,0,0,1-2.263.081,25.232,25.232,0,0,1-6.626-.889,11.09,11.09,0,0,1-8.242-7.757,5.6,5.6,0,0,1-.242-1.616l-.081-10.828a46.894,46.894,0,0,1-37.979,20.848h-1.05A47.109,47.109,0,0,1,63.935,72.942a59.647,59.647,0,0,1-13.252,5.252l1.535,29.494a6,6,0,0,1-1.212,4.04,17.441,17.441,0,0,1-9.535,6.141,37.679,37.679,0,0,1-9.535,1.293h-.97a37.6,37.6,0,0,1-9.858-1.535c-4.2-1.293-7.03-3.475-8.4-6.384a6.263,6.263,0,0,1-.566-2.424L9.067,29.387a7.3,7.3,0,0,1,.323-2.263,15.211,15.211,0,0,1,6.141-7.6,38.884,38.884,0,0,1,8.808-4.283A65.455,65.455,0,0,1,35.087,12.66a92.885,92.885,0,0,1,11.717-.97h.727a73.489,73.489,0,0,1,11.232.889A54.016,54.016,0,0,1,70.076,15.65a31.437,31.437,0,0,1,9.616,6.06,20.841,20.841,0,0,1,5.98,9.454,47.291,47.291,0,0,1,17.454-6.707h0a48.4,48.4,0,0,1,7.677-.646,47.055,47.055,0,0,1,36.928,17.939,1.257,1.257,0,0,1,.485.646,27.932,27.932,0,0,1,1.778,2.5,14.025,14.025,0,0,1,7.919-8.4,24.839,24.839,0,0,1,8.969-1.939h.485a23.524,23.524,0,0,1,7.677,1.212,12.129,12.129,0,0,1,4.687,2.667,21.824,21.824,0,0,1,8.808-2.02,16.89,16.89,0,0,1,2.02.081,22.482,22.482,0,0,1,9.939,3.636,29.148,29.148,0,0,1,7.515,7.273,34.213,34.213,0,0,1,3.313,5.495l.242-30.3a5.926,5.926,0,0,1,1.374-3.8,18.023,18.023,0,0,1,7.757-5.495,35.932,35.932,0,0,1,8.808-2.1c1.212.081,2.263.081,3.313.081m-.162,6.222h0M46.8,18.155h0m20.848,3.555c-.727-.323-1.535-.566-2.343-.889h0a20.108,20.108,0,0,1,2.343.889M18.36,25.347c-.242.162-.4.323-.646.485a3.733,3.733,0,0,0-.566.566,1.115,1.115,0,0,1,.323-.242l.242-.242a1.116,1.116,0,0,1,.323-.242.631.631,0,0,1,.323-.323m60.847,6.545a12.56,12.56,0,0,1,.646,1.859,4.056,4.056,0,0,1,.162.97h0a4.056,4.056,0,0,1-.162-.97,12.56,12.56,0,0,0-.646-1.859h0m-30.868,5.9c.727-.081,1.374-.162,2.02-.242h0a9.165,9.165,0,0,0-2.02.242m215.59,1.616h0m-1.939.162a.728.728,0,0,0,.4-.081c-.081.081-.162.081-.4.081h0m52.766,1.05h0m4.04.323c-.323-.081-.566-.081-.889-.162h-.162c.4.081.727.081,1.051.162m42.989.081h0m-194.743,0h0m142.542.162c.162,0,.4-.081.566-.081a1.577,1.577,0,0,0-.566.081h0m129.128.081h0m-72.079.242h0m-194.823,0h0m271.912.162a.486.486,0,0,1-.323-.081c-.242,0-.485-.081-.808-.081a4.769,4.769,0,0,1,1.131.162m5.333,1.05c-.323-.081-.566-.162-.889-.242-.081,0-.162-.081-.242-.081a4.632,4.632,0,0,0,1.131.323m-66.019.162h0m-194.743,0h0m196.439.081h0c-.242,0-.485-.081-.646-.081h-.162a2.749,2.749,0,0,1,.808.081m-194.743,0h0c-.242,0-.485-.081-.646-.081h-.162a3.031,3.031,0,0,1,.808.081m192.076,0a1.779,1.779,0,0,0,.646-.081h-.242a3.5,3.5,0,0,1-.4.081m-194.743,0a1.779,1.779,0,0,0,.646-.081h-.242a3.5,3.5,0,0,1-.4.081m264.559.97-.081-.081c-.081-.081-.162-.081-.242-.162a1.116,1.116,0,0,1,.323.242m.323.323h0m1.131,1.778c0-.081-.081-.242-.081-.323a.079.079,0,0,0-.081-.081.617.617,0,0,0,.162.4m-39.433,7.273c.485-.727.97-1.455,1.535-2.182-.485.727-1.051,1.455-1.535,2.182m-13.091,2.828c.485.97.889,1.939,1.293,2.99-.4-1.05-.808-2.02-1.293-2.99a.079.079,0,0,0-.081-.081l.081.081m10.666,4.2a10.96,10.96,0,0,1,.485-2.343c-.081.4-.242.808-.323,1.293a4.727,4.727,0,0,0-.162,1.05m40.565-2.1h0a1.766,1.766,0,0,1-.242.4h0a1.765,1.765,0,0,1,.242-.4h0m-.889,1.05h0l.162-.162a.174.174,0,0,1-.162.162m-.242.242h0c.081-.081.162-.081.162-.162l-.162.162m-.162.081c-.081,0-.081.081-.162.081h0c.081,0,.081,0,.162-.081h0m-.566.242h0c.081,0,.242-.081.323-.081a.611.611,0,0,1-.323.081m-.323.081h0M411.4,62.841a2.749,2.749,0,0,0,.081.808c0,.242.081.4.081.646,0-.242-.081-.4-.081-.646v-.242a1.375,1.375,0,0,1-.081-.566v0M62.8,66.558c-.162.162-.4.242-.566.4a3.421,3.421,0,0,0,.566-.4c.485-.323.889-.566,1.293-.889-.4.323-.808.566-1.293.889M57.47,69.467c.081-.081.242-.081.4-.162.323-.162.727-.323,1.05-.485a11.448,11.448,0,0,0-1.455.646m356.516.162a17.761,17.761,0,0,0,1.616,1.859,11.589,11.589,0,0,1-1.616-1.859h0M52.056,71.487h0c.4-.162.808-.242,1.212-.4.162-.081.242-.081.4-.162a12.828,12.828,0,0,1-1.616.566m292.518,8.969v-8a20.7,20.7,0,0,1-3.636,5.576,11,11,0,0,1,2.747,1.7c.323.242.566.485.889.727m44.847-5.333-.97-.485.485.242.485.242m-194.743,0-.97-.485.485.242a2.69,2.69,0,0,0,.485.242m198.7.808h0m-194.743,0h0m87.028.323V79h0a8.779,8.779,0,0,0,.081,1.455c0-.485-.081-.97-.081-1.455h0V76.255h0m140.2,1.7,2.909,1.212q-1.333-.606-2.909-1.212a.079.079,0,0,1-.081-.081c.081,0,.081,0,.081.081M322.837,81.507h0a13.131,13.131,0,0,1-1.535.323h.162a11.021,11.021,0,0,0,1.374-.323h0m-80.725,28.605,1.131-28.444L263.2,111,243.243,81.669l-1.131,28.444m73.453-27.636h.323A10.829,10.829,0,0,0,317.5,82.4c-.566,0-1.05.081-1.616.081h-.323m121.694,1.616c.242.485.485.889.646,1.293a2.568,2.568,0,0,1,.242.727,6.185,6.185,0,0,0-.889-2.02.613.613,0,0,1-.162-.323,5.437,5.437,0,0,0-.566-.889,3.73,3.73,0,0,1,.727,1.212m-101.331-.808h0m96.4,8.727c.4,0,.727-.081,1.05-.081-.242,0-.646.081-1.05.081h0M295.848,103.163c-.646-.566-1.212-1.212-1.778-1.778a9.221,9.221,0,0,0,.889.889,9.221,9.221,0,0,1,.889.889m147.309,5.9a8.079,8.079,0,0,0,1.131-.646,18.8,18.8,0,0,0,2.1-1.374c-.646.485-1.374.889-2.1,1.374-.4.242-.808.4-1.131.646M45.43,108.9c.162-.242.323-.4.485-.646h0c-.162.242-.323.4-.485.646m220.439,2.182h0m50.5.4h0m39.757.081a.3.3,0,0,1-.242-.081h.162c0,.081,0,.081.081.081m-194.743,0a.3.3,0,0,1-.242-.081h.162c-.081.081,0,.081.081.081m198.379.323h0m-194.743,0h0m-126.219.4h0a8.386,8.386,0,0,0,.97-.242l-.97.242m391.182.162h0m-398.05.646h0M102.964,24.62h0M232.819,6.6c-1.212,0-2.343.081-3.555.162a39.1,39.1,0,0,0-10.1,2.343,22.412,22.412,0,0,0-9.7,6.949,10.756,10.756,0,0,0-2.343,6.707l-.162,16.484a30.106,30.106,0,0,0-3.717-2.828,26.522,26.522,0,0,0-12.04-4.364c-.889-.081-1.7-.162-2.586-.162a25.333,25.333,0,0,0-8.081,1.374,17.138,17.138,0,0,0-3.879-1.778,28.58,28.58,0,0,0-9.212-1.455h-.566A29.444,29.444,0,0,0,156.135,32.3a18.791,18.791,0,0,0-6.545,4.444,51.4,51.4,0,0,0-38.706-17.535,50.13,50.13,0,0,0-8.485.727l.646,3.8h0l-.646-3.8A51.061,51.061,0,0,0,87.853,24.62a26.1,26.1,0,0,0-5.01-6.222,36.218,36.218,0,0,0-11.07-6.949A58.382,58.382,0,0,0,59.491,8.055a74.847,74.847,0,0,0-12.04-.97h-.808a102.136,102.136,0,0,0-12.363.97A69.116,69.116,0,0,0,22.724,10.8a39.255,39.255,0,0,0-9.939,4.848,21.419,21.419,0,0,0-7.919,10.1A12.883,12.883,0,0,0,4.3,29.63l3.071,79.432a10.746,10.746,0,0,0,1.05,4.2c1.939,4.2,5.737,7.192,11.232,8.889A43.527,43.527,0,0,0,30.8,123.93h1.05A40.085,40.085,0,0,0,42.6,122.476c5.172-1.455,9.293-4.04,12.04-7.838a10.716,10.716,0,0,0,2.1-7.111L55.369,81.75c1.535-.485,3.071-1.05,4.444-1.616a52.643,52.643,0,0,0,15.353,28.2,51.4,51.4,0,0,0,35.716,14.383h1.293a51.826,51.826,0,0,0,33.13-13.171c.081.485.162.889.242,1.293,1.455,5.414,5.656,9.454,11.555,11.07a31.6,31.6,0,0,0,7.838,1.05c.889,0,1.778,0,2.667-.081a35.748,35.748,0,0,0,9.858-2.182c4.768-1.859,8.081-4.687,9.858-8.485a11.6,11.6,0,0,0,1.05-4.606V84.416a18.894,18.894,0,0,0,5.414,2.1,19.865,19.865,0,0,0,4.848.566,23.354,23.354,0,0,0,5.252-.646c.889-.242,1.778-.485,2.667-.808l-.162,21.656a10.985,10.985,0,0,0,1.859,6.141,21.11,21.11,0,0,0,13.495,9.293,37.127,37.127,0,0,0,7.273.808,26.442,26.442,0,0,0,4.364-.323,48.135,48.135,0,0,0,8.565-1.859,3.757,3.757,0,0,0,.727-.242,10.405,10.405,0,0,0,5.091-1.535,11.225,11.225,0,0,0,4.525-5.172l1.939,2.828a10.844,10.844,0,0,0,7.919,4.768,29.871,29.871,0,0,0,3.879.162c.97,0,2.02,0,3.071-.081a26.67,26.67,0,0,0,9.616-2.343,24.338,24.338,0,0,0,9.05-6.949c.323-.4.646-.808.97-1.293.727.646,1.454,1.293,2.263,1.939a43.652,43.652,0,0,0,11.959,6.788,38.907,38.907,0,0,0,13.333,2.343h1.293a41.71,41.71,0,0,0,15.434-3.636,48.647,48.647,0,0,0,8.565-4.929,16.177,16.177,0,0,0,10.343,8,31.6,31.6,0,0,0,7.838,1.05c.889,0,1.778,0,2.667-.081a35.749,35.749,0,0,0,9.858-2.182c4.768-1.859,8.081-4.687,9.858-8.485a11.6,11.6,0,0,0,1.05-4.606V84.5a18.894,18.894,0,0,0,5.414,2.1,19.865,19.865,0,0,0,4.848.566,23.354,23.354,0,0,0,5.252-.646,20.224,20.224,0,0,0,5.656-2.263c-.323.4-.566.889-.889,1.374a26.681,26.681,0,0,0-3.151,8,27.33,27.33,0,0,0-.242,9.616,23.644,23.644,0,0,0,4.768,10.747,10.5,10.5,0,0,0,2.586,2.424,41.512,41.512,0,0,0,14.868,6.464,42.873,42.873,0,0,0,7.757.808,39.7,39.7,0,0,0,6.949-.646,40.676,40.676,0,0,0,23.111-13.414,40.033,40.033,0,0,0,6.788-11.07,31.006,31.006,0,0,0,2.343-13.414,28.9,28.9,0,0,0-4.121-13.414,29.5,29.5,0,0,0-4.687-5.9c.4-.566.808-1.212,1.212-1.859a26.221,26.221,0,0,0,2.909-8.242,28.059,28.059,0,0,0,.081-9.374A16.669,16.669,0,0,0,457.7,34.882a9.4,9.4,0,0,0-2.828-1.455,49.468,49.468,0,0,0-16.08-2.747c-.808,0-1.7,0-2.586.081a43.046,43.046,0,0,0-16.484,4.04,35.648,35.648,0,0,0-12.687,9.778c-.162.162-.242.323-.4.485a33.478,33.478,0,0,0-8.646-8.242,26.522,26.522,0,0,0-12.04-4.364c-.889-.081-1.7-.162-2.586-.162a25.333,25.333,0,0,0-8.081,1.374,17.138,17.138,0,0,0-3.879-1.778,28.581,28.581,0,0,0-9.212-1.455h-.566A29.444,29.444,0,0,0,350.877,32.7a18.541,18.541,0,0,0-9.374,8.485,37.033,37.033,0,0,0-3.717-3.394A36.052,36.052,0,0,0,323.241,31a34.611,34.611,0,0,0-8.161-.889,45.266,45.266,0,0,0-9.7,1.131H305.3a36.291,36.291,0,0,0-15.03,7.273,48.157,48.157,0,0,0-5.333,5.414,27.1,27.1,0,0,0-4.768-7.757,21.7,21.7,0,0,0-9.616-6.384,21.242,21.242,0,0,0-6.464-1.05,27.249,27.249,0,0,0-7.03.97,10.31,10.31,0,0,0-3.313,1.535l-.4-11.07a10.632,10.632,0,0,0-3.232-7.353,19.975,19.975,0,0,0-10.747-5.333,19.729,19.729,0,0,0-6.545-.889ZM452.208,44.256l-3.313,3.313,3.313-3.313Zm-3.717,11.8-.242-.4.242.4Zm1.293,1.939-.081-.081.081.081Zm-261,18.585Z" transform="translate(-4.3 -6.6)" fill="#fff"/>
      </g>
      <g id="Group_3" data-name="Group 3" transform="translate(96.078 13.171)">
        <path id="Path_5" data-name="Path 5" d="M124.527,28.681c-.242,0-.485-.081-.727-.081A2.237,2.237,0,0,0,124.527,28.681Z" transform="translate(-123.315 -23.994)" fill="#3a2f3e"/>
        <path id="Path_6" data-name="Path 6" d="M123.685,27.587c.242,0,.485.081.727.081a2.237,2.237,0,0,0-.727-.081m.4-4.687-.889,9.374.485.081h.162l.889-9.373h-.4l-.242-.081Z" transform="translate(-123.2 -22.9)" fill="#fff"/>
      </g>
      <g id="Group_4" data-name="Group 4" transform="translate(94.058 12.929)">
        <path id="Path_7" data-name="Path 7" d="M121.3,28.4a1.422,1.422,0,0,1,.485.081A1.422,1.422,0,0,0,121.3,28.4Z" transform="translate(-120.815 -23.713)" fill="#3a2f3e"/>
        <path id="Path_8" data-name="Path 8" d="M121.185,27.287a1.422,1.422,0,0,1,.485.081,2.857,2.857,0,0,1-.485-.081m.4-4.687-.889,9.374h.485l.889-9.374Z" transform="translate(-120.7 -22.6)" fill="#fff"/>
      </g>
      <g id="Group_5" data-name="Group 5" transform="translate(94.624 13.01)">
        <path id="Path_9" data-name="Path 9" d="M122,28.5c.162,0,.485.081.727.081A2.783,2.783,0,0,0,122,28.5Z" transform="translate(-121.515 -23.813)" fill="#3a2f3e"/>
        <path id="Path_10" data-name="Path 10" d="M121.885,27.387a2.783,2.783,0,0,1,.727.081,2.783,2.783,0,0,0-.727-.081m.4-4.687-.889,9.374.727.081.889-9.373-.566-.081Z" transform="translate(-121.4 -22.7)" fill="#fff"/>
      </g>
    </g>
    <g id="Group_19" data-name="Group 19" transform="translate(8.987 11.448)">
      <path id="Path_11" data-name="Path 11" d="M48.564,19.622a62.051,62.051,0,0,1,10.262.808A47.184,47.184,0,0,1,68.765,23.1a25.249,25.249,0,0,1,7.757,4.848,15.912,15.912,0,0,1,4.444,7.192,24.619,24.619,0,0,1-.081,10.586,29.512,29.512,0,0,1-5.414,11.717A43.413,43.413,0,0,1,63.917,68.025c-4.929,3.151-11.151,5.495-18.747,6.949l1.859,34.747a10.885,10.885,0,0,1-6.141,3.8,28.223,28.223,0,0,1-7.838,1.05h-.808a28.777,28.777,0,0,1-8.161-1.293c-2.424-.727-3.959-1.778-4.606-3.071L16.4,30.773a9.409,9.409,0,0,1,3.717-4.444,27.7,27.7,0,0,1,7.273-3.475,54.131,54.131,0,0,1,9.616-2.263A78.294,78.294,0,0,1,47.836,19.7a2.493,2.493,0,0,1,.727-.081M43.069,51.7a35.148,35.148,0,0,0,5.01-.485A33.337,33.337,0,0,0,54.3,49.682a17.324,17.324,0,0,0,5.252-2.909,5.973,5.973,0,0,0,2.263-4.687A4.135,4.135,0,0,0,58.1,39.177a19.54,19.54,0,0,0-3.8-.323c-.889,0-1.778.081-2.667.162a68.569,68.569,0,0,0-8.808,1.616l.242,11.07m5.495-38.3h-.727a79.951,79.951,0,0,0-11.717.97,59.777,59.777,0,0,0-10.747,2.586,34.377,34.377,0,0,0-8.808,4.283,15.211,15.211,0,0,0-6.141,7.6A6.971,6.971,0,0,0,10.1,31.1l3.071,79.432a6.263,6.263,0,0,0,.566,2.424c1.374,2.99,4.2,5.091,8.4,6.384A34.52,34.52,0,0,0,32,120.872h.97a34.366,34.366,0,0,0,9.535-1.293,17.013,17.013,0,0,0,9.535-6.141,6,6,0,0,0,1.212-4.04L51.715,79.9a54.005,54.005,0,0,0,15.6-6.626A48.366,48.366,0,0,0,80.563,61.156a36.793,36.793,0,0,0,6.464-14.222,30.844,30.844,0,0,0,0-13.333c0-.081-.081-.162-.081-.242a21.721,21.721,0,0,0-6.222-10.02,32.44,32.44,0,0,0-9.616-6.06A54.016,54.016,0,0,0,59.8,14.208,73.519,73.519,0,0,0,48.564,13.4Z" transform="translate(-10.1 -12.754)" fill="#413430"/>
      <path id="Path_12" data-name="Path 12" d="M201.9,47.9a17.672,17.672,0,0,1,5.656.889c1.778.646,2.747,1.293,2.828,2.1l-1.131,7.03a20.312,20.312,0,0,1,7.6-6.626,14.93,14.93,0,0,1,6.3-1.455,7.393,7.393,0,0,1,1.374.081,15.362,15.362,0,0,1,7.192,2.667,23.6,23.6,0,0,1,5.98,5.737,32.6,32.6,0,0,1,4.2,7.757,26.939,26.939,0,0,1,1.7,8.646,10.183,10.183,0,0,1-2.99,5.333,10.908,10.908,0,0,1-4.768,2.5,10.038,10.038,0,0,1-2.667.323,11.538,11.538,0,0,1-2.343-.242,8.456,8.456,0,0,1-3.8-1.939c-.566-2.99-1.535-5.01-2.99-6.141a5.459,5.459,0,0,0-3.394-1.212,6.238,6.238,0,0,0-1.212.162,8.808,8.808,0,0,0-4.606,3.151A13.051,13.051,0,0,0,212,83.377v31.11q-.848,1.7-3.879,2.909a22.542,22.542,0,0,1-6.707,1.455,13.092,13.092,0,0,1-1.778.081,20.259,20.259,0,0,1-5.01-.646,4.963,4.963,0,0,1-3.879-3.394L190.5,54.044a7.514,7.514,0,0,1,4.444-4.687,19.168,19.168,0,0,1,6.626-1.455h.323m0-6.3h-.485a24.839,24.839,0,0,0-8.969,1.939,14.025,14.025,0,0,0-7.919,8.4,6.025,6.025,0,0,0-.323,2.1l.242,60.766a5.21,5.21,0,0,0,.242,1.616,10.966,10.966,0,0,0,8.242,7.757,25.7,25.7,0,0,0,6.626.889,21.172,21.172,0,0,0,2.263-.081,31.7,31.7,0,0,0,8.485-1.859c3.636-1.374,6.06-3.475,7.273-6.141a6.089,6.089,0,0,0,.566-2.667V83.862a6.644,6.644,0,0,1,1.374-3.232,3.746,3.746,0,0,1,.808-.808,9.325,9.325,0,0,1,.485,1.939,5.821,5.821,0,0,0,1.778,3.313,13.843,13.843,0,0,0,6.788,3.636,14.8,14.8,0,0,0,3.8.4,17.939,17.939,0,0,0,4.121-.485,17.072,17.072,0,0,0,7.353-3.879,16.542,16.542,0,0,0,5.01-8.646,5.235,5.235,0,0,0,.162-1.616,32.919,32.919,0,0,0-2.1-10.666,39.4,39.4,0,0,0-5.01-9.293,32.008,32.008,0,0,0-7.515-7.273,22.846,22.846,0,0,0-9.939-3.636,16.891,16.891,0,0,0-2.02-.081,20.568,20.568,0,0,0-8.808,2.02,13.252,13.252,0,0,0-4.687-2.667A22.477,22.477,0,0,0,201.9,41.6Z" transform="translate(-43.517 -18.166)" fill="#413430"/>
      <path id="Path_13" data-name="Path 13" d="M281.918,18.9a25.96,25.96,0,0,1,4.444.4,9.378,9.378,0,0,1,5.01,2.343l1.293,34.423,16.242-14.707a16.643,16.643,0,0,1,4.2-.646,8.924,8.924,0,0,1,2.99.485,11.015,11.015,0,0,1,4.848,3.151,16.507,16.507,0,0,1,2.99,5.01,40.311,40.311,0,0,1,1.7,5.333,4.381,4.381,0,0,1-.485,2.02,16.444,16.444,0,0,1-2.1,2.747c-1.05,1.212-2.5,2.747-4.444,4.606-1.939,1.939-4.364,4.444-7.434,7.677v.727c1.131,1.859,2.5,3.879,4.2,6.222,1.616,2.263,3.394,4.687,5.252,7.192s3.636,4.929,5.495,7.353,3.555,4.606,5.01,6.464a14.215,14.215,0,0,1-2.747,7.434,13.372,13.372,0,0,1-5.01,3.879,19.226,19.226,0,0,1-5.818,1.455c-.889.081-1.7.081-2.424.081-.97,0-1.939-.081-2.747-.162l-20.04-29.413-1.131,28.444c-.081,0-.162-.081-.323-.081a14.778,14.778,0,0,0-3.151.727,47.4,47.4,0,0,1-6.788,1.455,17.566,17.566,0,0,1-2.909.162,21.658,21.658,0,0,1-5.01-.566,10.309,10.309,0,0,1-6.626-4.606l.727-84.361a11.606,11.606,0,0,1,5.091-3.475,26.131,26.131,0,0,1,7.111-1.7c.889-.081,1.778-.081,2.586-.081m0-6.3c-1.051,0-2.1.081-3.151.162a29.852,29.852,0,0,0-8.808,2.1,18.023,18.023,0,0,0-7.757,5.495,6.092,6.092,0,0,0-1.374,3.8l-.727,84.361a6.124,6.124,0,0,0,1.05,3.555,16.529,16.529,0,0,0,10.5,7.273,30.1,30.1,0,0,0,10.02.4,60.643,60.643,0,0,0,7.838-1.616c.727-.242,1.212-.323,1.454-.4h.162a6.713,6.713,0,0,0,3.232-.889,6.12,6.12,0,0,0,3.071-5.172l.4-9.454,9.293,13.656a6.413,6.413,0,0,0,4.525,2.747c1.051.081,2.182.162,3.394.162.889,0,1.778,0,2.747-.081a23.219,23.219,0,0,0,8-1.939,19.81,19.81,0,0,0,7.353-5.656,19.558,19.558,0,0,0,4.121-10.666,6.516,6.516,0,0,0-1.293-4.687c-1.455-1.859-3.071-3.879-4.929-6.384-1.778-2.343-3.636-4.848-5.414-7.273s-3.555-4.848-5.172-7.111c-.566-.727-1.05-1.535-1.535-2.182,1.616-1.7,2.99-3.071,4.2-4.283,2.02-2.02,3.555-3.636,4.687-4.929a26.54,26.54,0,0,0,2.909-3.959,10.586,10.586,0,0,0,1.212-4.929,7.118,7.118,0,0,0-.162-1.374,59.842,59.842,0,0,0-1.939-6.222,21.919,21.919,0,0,0-4.121-6.869,16.957,16.957,0,0,0-7.6-5.01,16.574,16.574,0,0,0-4.929-.808,21.457,21.457,0,0,0-5.818.808,6.162,6.162,0,0,0-2.586,1.374l-6.3,5.656-.808-21.01a6.3,6.3,0,0,0-1.858-4.2A15.553,15.553,0,0,0,287.493,13a41.133,41.133,0,0,0-5.576-.4Z" transform="translate(-58.085 -12.6)" fill="#413430"/>
      <path id="Path_14" data-name="Path 14" d="M380.335,47.422a26.555,26.555,0,0,1,5.737.646,25.082,25.082,0,0,1,10.262,4.768,22.572,22.572,0,0,1,6.626,8.4,23.772,23.772,0,0,1,2.263,10.586,13.6,13.6,0,0,1-4.04,9.293,25.66,25.66,0,0,1-9.05,5.98,31.61,31.61,0,0,1-10.909,2.182h-.566a18.2,18.2,0,0,1-8.808-1.939c.4,3.151,1.374,5.576,2.99,7.192a9.148,9.148,0,0,0,6.222,2.828c.4,0,.808.081,1.293.081a22.78,22.78,0,0,0,7.515-1.455,47.071,47.071,0,0,0,10.666-5.818c.323,0,.566-.081.889-.081a6.266,6.266,0,0,1,3.8,1.374,10.155,10.155,0,0,1,3.151,4.364,10.772,10.772,0,0,1,.566,5.818,9.915,9.915,0,0,1-3.232,5.737,41.163,41.163,0,0,1-11.717,8.161,30.842,30.842,0,0,1-11.394,2.747h-.97a26.49,26.49,0,0,1-9.454-1.7,32.444,32.444,0,0,1-8.969-5.01,31.277,31.277,0,0,1-6.788-7.434,29.781,29.781,0,0,1-4.04-8.969,32.8,32.8,0,0,1-.97-5.9,58.937,58.937,0,0,1-.162-8.565,61.355,61.355,0,0,1,1.293-9.778,33.752,33.752,0,0,1,3.636-9.616,29.673,29.673,0,0,1,6.626-8,25.114,25.114,0,0,1,10.424-5.01,31.149,31.149,0,0,1,7.111-.889m-.242,25.05h.808a10.237,10.237,0,0,0,3.8-1.05,3.444,3.444,0,0,0,2.02-2.182,2.456,2.456,0,0,0-1.293-2.828,7.538,7.538,0,0,0-3.636-.808h-.242a10.661,10.661,0,0,0-4.2.97,2.877,2.877,0,0,0-1.939,2.667,2.935,2.935,0,0,0,1.859,2.747,7.684,7.684,0,0,0,2.828.485m.242-31.272a36.6,36.6,0,0,0-8.646,1.05h-.081a30.168,30.168,0,0,0-13.01,6.3,35.765,35.765,0,0,0-8.081,9.778,43.014,43.014,0,0,0-4.283,11.394,65.465,65.465,0,0,0-1.454,10.828,73.235,73.235,0,0,0,.162,9.535,44.67,44.67,0,0,0,1.131,6.869,38.352,38.352,0,0,0,13.091,19.636,37.61,37.61,0,0,0,10.666,6.06,33.446,33.446,0,0,0,11.717,2.1h1.131a36.7,36.7,0,0,0,13.737-3.313,45.985,45.985,0,0,0,13.575-9.454,16.663,16.663,0,0,0,5.091-9.373,17.651,17.651,0,0,0-.889-8.969,16.178,16.178,0,0,0-5.172-7.03,19.352,19.352,0,0,0-2.747-1.7,20.3,20.3,0,0,0,5.252-12.767v-.162a29.715,29.715,0,0,0-11.313-24.08,31.635,31.635,0,0,0-12.767-5.98,34.236,34.236,0,0,0-7.111-.727Z" transform="translate(-74.322 -18.089)" fill="#413430"/>
      <path id="Path_15" data-name="Path 15" d="M443,47.9a17.672,17.672,0,0,1,5.656.889c1.778.646,2.747,1.293,2.828,2.1l-1.131,7.03a20.312,20.312,0,0,1,7.6-6.626,14.93,14.93,0,0,1,6.3-1.455,7.393,7.393,0,0,1,1.374.081,15.362,15.362,0,0,1,7.192,2.667,23.6,23.6,0,0,1,5.98,5.737,32.6,32.6,0,0,1,4.2,7.757,26.941,26.941,0,0,1,1.7,8.646,10.183,10.183,0,0,1-2.99,5.333,10.908,10.908,0,0,1-4.768,2.5,10.038,10.038,0,0,1-2.667.323,11.538,11.538,0,0,1-2.343-.242,8.457,8.457,0,0,1-3.8-1.939c-.566-2.99-1.535-5.01-2.99-6.141a5.459,5.459,0,0,0-3.394-1.212,6.238,6.238,0,0,0-1.212.162,8.808,8.808,0,0,0-4.606,3.151,13.051,13.051,0,0,0-2.828,6.707v31.11q-.849,1.7-3.879,2.909a22.542,22.542,0,0,1-6.707,1.455,13.091,13.091,0,0,1-1.778.081,20.259,20.259,0,0,1-5.01-.646,4.963,4.963,0,0,1-3.879-3.394l-.323-60.847a7.514,7.514,0,0,1,4.444-4.687,19.168,19.168,0,0,1,6.626-1.455h.4m0-6.3h-.485a24.839,24.839,0,0,0-8.969,1.939,14.025,14.025,0,0,0-7.919,8.4,6.026,6.026,0,0,0-.323,2.1l.242,60.766a5.211,5.211,0,0,0,.242,1.616,10.966,10.966,0,0,0,8.242,7.757,25.7,25.7,0,0,0,6.626.889,21.171,21.171,0,0,0,2.263-.081,31.7,31.7,0,0,0,8.485-1.859c3.636-1.374,6.06-3.475,7.273-6.141a6.09,6.09,0,0,0,.566-2.667V83.862a6.643,6.643,0,0,1,1.374-3.232,3.747,3.747,0,0,1,.808-.808,9.328,9.328,0,0,1,.485,1.939,5.82,5.82,0,0,0,1.778,3.313,13.843,13.843,0,0,0,6.788,3.636,14.8,14.8,0,0,0,3.8.4,17.94,17.94,0,0,0,4.121-.485,17.072,17.072,0,0,0,7.353-3.879,16.542,16.542,0,0,0,5.01-8.646,5.235,5.235,0,0,0,.162-1.616,32.921,32.921,0,0,0-2.1-10.666,39.4,39.4,0,0,0-5.01-9.293,32.009,32.009,0,0,0-7.515-7.273,22.846,22.846,0,0,0-9.939-3.636,16.892,16.892,0,0,0-2.02-.081,20.568,20.568,0,0,0-8.808,2.02,13.252,13.252,0,0,0-4.687-2.667A23.124,23.124,0,0,0,443,41.6Z" transform="translate(-89.793 -18.166)" fill="#413430"/>
      <path id="Path_16" data-name="Path 16" d="M533.844,48.222A38.953,38.953,0,0,1,546.369,50.4a6.155,6.155,0,0,1,2.424,4.2,14.783,14.783,0,0,1-.081,5.656,14.33,14.33,0,0,1-1.7,4.848c-.646,1.131-1.374,1.7-2.1,1.7a.729.729,0,0,1-.4-.081A17.953,17.953,0,0,0,539.823,66h-.242a12.636,12.636,0,0,0-3.394.485,3.717,3.717,0,0,0-1.859,1.212,2.217,2.217,0,0,0-.566,1.455,3.9,3.9,0,0,0,.889,2.5,5.942,5.942,0,0,0,2.02,1.616,24.32,24.32,0,0,0,2.909,1.455q1.7.848,3.636,1.939a21.216,21.216,0,0,1,7.434,7.192,18.313,18.313,0,0,1,2.667,8.4,19.591,19.591,0,0,1-1.535,8.727,29.3,29.3,0,0,1-4.929,8,29.7,29.7,0,0,1-7.515,6.222,29.241,29.241,0,0,1-9.373,3.555,23.49,23.49,0,0,1-4.848.485,27.408,27.408,0,0,1-5.656-.566,29.681,29.681,0,0,1-10.828-4.768,13.43,13.43,0,0,1-2.667-5.818,16.094,16.094,0,0,1,.081-5.576,15.437,15.437,0,0,1,1.859-4.768,20.555,20.555,0,0,1,2.5-3.394c.242.646,1.131,1.212,2.667,1.859a34.228,34.228,0,0,0,5.495,1.7,34.585,34.585,0,0,0,6.464.889h.808a13.761,13.761,0,0,0,4.768-.727,4.023,4.023,0,0,0,2.747-2.828c.323-1.374-.323-3.232-1.859-5.818-.323-.566-1.212-1.05-2.667-1.7-1.455-.566-3.151-1.212-5.091-2.02-1.939-.727-3.96-1.7-6.141-2.667a25.787,25.787,0,0,1-5.818-3.8,17.172,17.172,0,0,1-4.2-5.172,12.091,12.091,0,0,1-1.212-6.949,18.061,18.061,0,0,1,4.04-9.373,25.372,25.372,0,0,1,8.969-6.788,33.156,33.156,0,0,1,12.444-2.99,4.483,4.483,0,0,0,2.02.242m0-6.222a21.173,21.173,0,0,0-2.263.081,40.588,40.588,0,0,0-14.787,3.555,31.433,31.433,0,0,0-11.07,8.485,24.807,24.807,0,0,0-5.495,12.687v.162a18.608,18.608,0,0,0,1.939,10.424,23.6,23.6,0,0,0,5.656,7.03,35.5,35.5,0,0,0,7.192,4.687c2.263,1.131,4.525,2.1,6.545,2.909.646.242,1.212.485,1.778.727a20.76,20.76,0,0,1-3.232-.566,30.689,30.689,0,0,1-4.525-1.374c-.081-.081-.242-.081-.323-.162a6.458,6.458,0,0,0-3.475-2.1,7.075,7.075,0,0,0-1.293-.162,6.309,6.309,0,0,0-4.444,1.859,24.446,24.446,0,0,0-3.475,4.606,22.648,22.648,0,0,0-2.586,6.626,19.639,19.639,0,0,0-.162,7.838,19.293,19.293,0,0,0,3.879,8.646,5.882,5.882,0,0,0,1.454,1.374,36.214,36.214,0,0,0,13.171,5.737,33.657,33.657,0,0,0,6.869.727,29.417,29.417,0,0,0,5.98-.566,36.815,36.815,0,0,0,11.313-4.283,36.115,36.115,0,0,0,15.03-17.373,26.8,26.8,0,0,0,2.02-11.394,24.91,24.91,0,0,0-11.474-19.555,9.384,9.384,0,0,0,4.444-4.2,21.079,21.079,0,0,0,2.424-6.788,22.739,22.739,0,0,0,.081-7.757,12.524,12.524,0,0,0-5.01-8.4,6.056,6.056,0,0,0-1.616-.808A40.83,40.83,0,0,0,533.844,42Z" transform="translate(-104.036 -18.243)" fill="#413430"/>
      <g id="Group_7" data-name="Group 7" transform="translate(4.202 4.848)">
        <path id="Path_17" data-name="Path 17" d="M17.9,32.17a9.409,9.409,0,0,1,3.717-4.444,27.7,27.7,0,0,1,7.273-3.475,54.131,54.131,0,0,1,9.616-2.263A78.294,78.294,0,0,1,49.334,21.1a71.11,71.11,0,0,1,10.99.808,47.184,47.184,0,0,1,9.939,2.667,25.249,25.249,0,0,1,7.757,4.848,15.912,15.912,0,0,1,4.444,7.192A24.619,24.619,0,0,1,82.383,47.2a29.512,29.512,0,0,1-5.414,11.717A43.414,43.414,0,0,1,65.414,69.5C60.485,72.654,54.263,75,46.667,76.452L48.525,111.2a10.885,10.885,0,0,1-6.141,3.8,30.929,30.929,0,0,1-8.646,1.05,28.778,28.778,0,0,1-8.161-1.293c-2.424-.727-3.959-1.778-4.606-3.071ZM44.566,53.18a35.148,35.148,0,0,0,5.01-.485A33.337,33.337,0,0,0,55.8,51.16a17.325,17.325,0,0,0,5.252-2.909,5.973,5.973,0,0,0,2.263-4.687A4.135,4.135,0,0,0,59.6,40.655a24.479,24.479,0,0,0-6.464-.162,68.569,68.569,0,0,0-8.808,1.616Z" transform="translate(-15.799 -19.08)" fill="#fd978f"/>
        <path id="Path_18" data-name="Path 18" d="M49.562,20.62a62.051,62.051,0,0,1,10.262.808,47.184,47.184,0,0,1,9.939,2.667,25.249,25.249,0,0,1,7.757,4.848,15.912,15.912,0,0,1,4.444,7.192,24.62,24.62,0,0,1-.081,10.586A29.512,29.512,0,0,1,76.47,58.437,43.414,43.414,0,0,1,64.915,69.023c-4.929,3.151-11.151,5.495-18.747,6.949l1.859,34.747a10.885,10.885,0,0,1-6.141,3.8,28.224,28.224,0,0,1-7.838,1.05h-.808a28.777,28.777,0,0,1-8.161-1.293c-2.424-.727-3.959-1.778-4.606-3.071L17.4,31.771a9.409,9.409,0,0,1,3.717-4.444,27.7,27.7,0,0,1,7.273-3.475,54.131,54.131,0,0,1,9.616-2.263A78.294,78.294,0,0,1,48.834,20.7a2.493,2.493,0,0,1,.727-.081M44.067,52.7a35.148,35.148,0,0,0,5.01-.485A33.337,33.337,0,0,0,55.3,50.68a17.324,17.324,0,0,0,5.252-2.909,5.973,5.973,0,0,0,2.263-4.687A4.135,4.135,0,0,0,59.1,40.175a19.54,19.54,0,0,0-3.8-.323c-.889,0-1.778.081-2.667.162a68.569,68.569,0,0,0-8.808,1.616l.242,11.07m5.495-34.1h-.727a72.435,72.435,0,0,0-11.151.889,67.612,67.612,0,0,0-10.02,2.343,34.706,34.706,0,0,0-7.757,3.717,11.007,11.007,0,0,0-4.525,5.495,2.237,2.237,0,0,0-.081.727L18.371,111.2a2.871,2.871,0,0,0,.162.808c.889,1.859,2.828,3.232,5.818,4.2a32.369,32.369,0,0,0,8.727,1.374h.889a32.9,32.9,0,0,0,8.4-1.131,13.291,13.291,0,0,0,7.273-4.525,2.115,2.115,0,0,0,.4-1.374L48.269,77.588a53.609,53.609,0,0,0,17.7-6.869,44.986,44.986,0,0,0,12.121-11.07,32.851,32.851,0,0,0,5.737-12.525,24.94,24.94,0,0,0,0-11.474v-.081a18.414,18.414,0,0,0-5.091-8.161,28.511,28.511,0,0,0-8.4-5.252,45.185,45.185,0,0,0-10.343-2.828A71.969,71.969,0,0,0,49.562,18.6Zm3.151,23.434c.808-.081,1.7-.162,2.424-.162a24.264,24.264,0,0,1,3.475.242c1.374.242,1.778.808,1.939,1.131A3.736,3.736,0,0,1,59.1,45.993a12.5,12.5,0,0,1-4.606,2.747A34.046,34.046,0,0,1,48.673,50.2c-.97.162-1.859.242-2.667.323l-.242-7.273a66.509,66.509,0,0,1,6.949-1.212Z" transform="translate(-15.3 -18.6)" fill="#fff"/>
      </g>
      <g id="Group_8" data-name="Group 8" transform="translate(144.885 27.636)">
        <path id="Path_19" data-name="Path 19" d="M192,55.541a7.514,7.514,0,0,1,4.444-4.687A19.168,19.168,0,0,1,203.07,49.4a17.71,17.71,0,0,1,6.06.889c1.778.646,2.747,1.293,2.828,2.1l-1.131,7.03a20.312,20.312,0,0,1,7.6-6.626A14.553,14.553,0,0,1,226.1,51.42a15.362,15.362,0,0,1,7.192,2.667,23.6,23.6,0,0,1,5.98,5.737,32.6,32.6,0,0,1,4.2,7.757,26.94,26.94,0,0,1,1.7,8.646,10.183,10.183,0,0,1-2.99,5.333,10.908,10.908,0,0,1-4.768,2.5,11.663,11.663,0,0,1-5.01.081,8.456,8.456,0,0,1-3.8-1.939c-.566-2.99-1.535-5.01-2.99-6.141a5.137,5.137,0,0,0-4.606-1.05,8.808,8.808,0,0,0-4.606,3.151,13.051,13.051,0,0,0-2.828,6.707v31.11q-.848,1.7-3.879,2.909a22.543,22.543,0,0,1-6.707,1.455,20.7,20.7,0,0,1-6.788-.566,4.963,4.963,0,0,1-3.879-3.394Z" transform="translate(-189.899 -47.299)" fill="#fd978f"/>
        <path id="Path_20" data-name="Path 20" d="M202.895,48.9a17.671,17.671,0,0,1,5.656.889c1.778.646,2.747,1.293,2.828,2.1l-1.131,7.03a20.312,20.312,0,0,1,7.6-6.626,14.929,14.929,0,0,1,6.3-1.455,7.394,7.394,0,0,1,1.374.081,15.362,15.362,0,0,1,7.192,2.667,23.6,23.6,0,0,1,5.98,5.737,32.6,32.6,0,0,1,4.2,7.757,26.939,26.939,0,0,1,1.7,8.646,10.183,10.183,0,0,1-2.99,5.333,10.908,10.908,0,0,1-4.768,2.5,10.038,10.038,0,0,1-2.667.323,11.538,11.538,0,0,1-2.343-.242,8.456,8.456,0,0,1-3.8-1.939c-.566-2.99-1.535-5.01-2.99-6.141a5.459,5.459,0,0,0-3.394-1.212,6.238,6.238,0,0,0-1.212.162,8.808,8.808,0,0,0-4.606,3.151A13.051,13.051,0,0,0,213,84.375v31.11q-.848,1.7-3.879,2.909a22.542,22.542,0,0,1-6.707,1.455,13.093,13.093,0,0,1-1.778.081,20.259,20.259,0,0,1-5.01-.646,4.963,4.963,0,0,1-3.879-3.394L191.5,55.042a7.514,7.514,0,0,1,4.444-4.687,19.168,19.168,0,0,1,6.626-1.455h.323m0-2.1h-.4a20.176,20.176,0,0,0-7.434,1.616,9.528,9.528,0,0,0-5.576,5.98,2.237,2.237,0,0,0-.081.727l.242,60.766a1.375,1.375,0,0,0,.081.566c.485,1.7,1.778,3.879,5.333,4.848a21.1,21.1,0,0,0,5.576.727,15.569,15.569,0,0,0,1.939-.081,25.86,25.86,0,0,0,7.273-1.616c2.586-1.05,4.283-2.343,5.01-3.959a1.6,1.6,0,0,0,.162-.889V84.456a12.542,12.542,0,0,1,2.343-5.576,7.078,7.078,0,0,1,3.555-2.5,2.491,2.491,0,0,1,.808-.081,3.132,3.132,0,0,1,2.1.808c.97.727,1.778,2.424,2.182,4.848a2.155,2.155,0,0,0,.566,1.131,10.012,10.012,0,0,0,4.768,2.5,10.848,10.848,0,0,0,2.828.323,14.038,14.038,0,0,0,3.151-.4,13.716,13.716,0,0,0,5.656-2.99,11.872,11.872,0,0,0,3.636-6.464,1.2,1.2,0,0,0,.081-.566,28.814,28.814,0,0,0-1.859-9.293,35.616,35.616,0,0,0-4.444-8.323,26.172,26.172,0,0,0-6.464-6.222,17.928,17.928,0,0,0-8.081-2.99,10.83,10.83,0,0,0-1.616-.081,17.622,17.622,0,0,0-10.747,3.8l.081-.4v-.566c-.242-2.5-3.232-3.475-4.2-3.8a26.692,26.692,0,0,0-6.464-.808Z" transform="translate(-189.4 -46.8)" fill="#fff"/>
      </g>
      <g id="Group_9" data-name="Group 9" transform="translate(206.217 4.202)">
        <path id="Path_21" data-name="Path 21" d="M268.627,25.64a11.606,11.606,0,0,1,5.091-3.475,26.131,26.131,0,0,1,7.111-1.7,22.387,22.387,0,0,1,7.03.323,9.378,9.378,0,0,1,5.01,2.343l1.293,34.423L310.4,42.852a12.886,12.886,0,0,1,7.192-.162,11.015,11.015,0,0,1,4.848,3.151,16.508,16.508,0,0,1,2.99,5.01,40.307,40.307,0,0,1,1.7,5.333,4.381,4.381,0,0,1-.485,2.02,16.443,16.443,0,0,1-2.1,2.747c-1.051,1.212-2.505,2.747-4.444,4.606-1.939,1.939-4.363,4.444-7.434,7.677v.727c1.131,1.859,2.505,3.879,4.2,6.222,1.616,2.263,3.394,4.687,5.252,7.192s3.636,4.929,5.495,7.353,3.555,4.606,5.01,6.464a14.215,14.215,0,0,1-2.747,7.434,13.372,13.372,0,0,1-5.01,3.879,19.226,19.226,0,0,1-5.818,1.455,35.305,35.305,0,0,1-5.172-.081l-20.04-29.413-1.131,28.444c-.323-.162-1.454.081-3.475.727a47.4,47.4,0,0,1-6.788,1.455,23.91,23.91,0,0,1-7.919-.323,10.309,10.309,0,0,1-6.626-4.606Z" transform="translate(-265.799 -18.287)" fill="#fd978f"/>
        <path id="Path_22" data-name="Path 22" d="M282.916,19.9a25.96,25.96,0,0,1,4.444.4,9.378,9.378,0,0,1,5.01,2.343l1.293,34.423L309.9,42.365a16.643,16.643,0,0,1,4.2-.646,8.924,8.924,0,0,1,2.99.485,11.015,11.015,0,0,1,4.848,3.151,16.508,16.508,0,0,1,2.99,5.01,40.316,40.316,0,0,1,1.7,5.333,4.381,4.381,0,0,1-.485,2.02,16.443,16.443,0,0,1-2.1,2.747c-1.051,1.212-2.505,2.747-4.444,4.606-1.939,1.939-4.363,4.444-7.434,7.677v.727c1.131,1.859,2.505,3.879,4.2,6.222,1.616,2.263,3.394,4.687,5.252,7.192s3.636,4.929,5.495,7.353,3.555,4.606,5.01,6.464a14.215,14.215,0,0,1-2.747,7.434,13.372,13.372,0,0,1-5.01,3.879,19.226,19.226,0,0,1-5.818,1.455c-.889.081-1.7.081-2.424.081-.97,0-1.939-.081-2.747-.162L293.34,83.98l-1.131,28.444c-.081,0-.162-.081-.323-.081a14.778,14.778,0,0,0-3.151.727,47.4,47.4,0,0,1-6.788,1.455,17.565,17.565,0,0,1-2.909.162,21.659,21.659,0,0,1-5.01-.566,10.309,10.309,0,0,1-6.626-4.606l.727-84.361a11.606,11.606,0,0,1,5.091-3.475,26.131,26.131,0,0,1,7.111-1.7c.889-.081,1.778-.081,2.586-.081m0-2.1h0c-.889,0-1.859.081-2.747.162a30.363,30.363,0,0,0-7.677,1.778,14.578,14.578,0,0,0-5.98,4.121,1.981,1.981,0,0,0-.485,1.293l-.727,84.361a2.28,2.28,0,0,0,.323,1.212,12.126,12.126,0,0,0,7.919,5.495,25.171,25.171,0,0,0,5.414.566,21.76,21.76,0,0,0,3.232-.242,41.5,41.5,0,0,0,7.192-1.535c1.535-.485,2.182-.566,2.424-.646h.4a1.624,1.624,0,0,0,1.05-.323,2.044,2.044,0,0,0,1.05-1.7L295.2,90.2l16.4,24.08a2.144,2.144,0,0,0,1.535.889c.889.081,1.859.162,2.99.162.808,0,1.616,0,2.505-.081a18.558,18.558,0,0,0,6.545-1.616,14.974,14.974,0,0,0,9.05-13.01,2.025,2.025,0,0,0-.4-1.535c-1.454-1.859-3.151-3.959-5.01-6.464-1.859-2.424-3.636-4.848-5.495-7.273-1.778-2.424-3.555-4.848-5.172-7.111-1.293-1.859-2.5-3.555-3.475-5.091,2.667-2.747,4.848-5.01,6.545-6.707,1.939-1.939,3.475-3.555,4.525-4.768a17.1,17.1,0,0,0,2.343-3.151,6.529,6.529,0,0,0,.727-2.99,1.024,1.024,0,0,0-.081-.485,37.453,37.453,0,0,0-1.778-5.656,19.237,19.237,0,0,0-3.313-5.576,14.022,14.022,0,0,0-5.737-3.8,10.72,10.72,0,0,0-3.636-.566,17.553,17.553,0,0,0-4.768.727,1.926,1.926,0,0,0-.889.485L295.683,52.385l-1.131-29.9a1.726,1.726,0,0,0-.646-1.374,11.234,11.234,0,0,0-6.141-2.909,30.975,30.975,0,0,0-4.848-.4Z" transform="translate(-265.3 -17.8)" fill="#fff"/>
      </g>
      <g id="Group_10" data-name="Group 10" transform="translate(274.656 27.312)">
        <path id="Path_23" data-name="Path 23" d="M402.052,91.655a5.976,5.976,0,0,1,4.606,1.293,10.156,10.156,0,0,1,3.151,4.364,10.772,10.772,0,0,1,.566,5.818,9.915,9.915,0,0,1-3.232,5.737,41.163,41.163,0,0,1-11.717,8.161,30.842,30.842,0,0,1-11.394,2.747,26.672,26.672,0,0,1-10.424-1.7,32.443,32.443,0,0,1-8.969-5.01,31.277,31.277,0,0,1-6.788-7.434,29.782,29.782,0,0,1-4.04-8.969,32.8,32.8,0,0,1-.97-5.9,58.945,58.945,0,0,1-.162-8.565,61.363,61.363,0,0,1,1.293-9.778,33.751,33.751,0,0,1,3.636-9.616,29.672,29.672,0,0,1,6.626-8,25.114,25.114,0,0,1,10.424-5.01,29.255,29.255,0,0,1,12.929-.242,25.082,25.082,0,0,1,10.262,4.768,22.572,22.572,0,0,1,6.626,8.4,23.771,23.771,0,0,1,2.263,10.586A13.6,13.6,0,0,1,402.7,82.6a25.66,25.66,0,0,1-9.05,5.98,31.611,31.611,0,0,1-10.909,2.182,18.516,18.516,0,0,1-9.374-1.939c.4,3.151,1.374,5.576,2.99,7.192a9.147,9.147,0,0,0,6.222,2.828,20.3,20.3,0,0,0,8.808-1.455A46.647,46.647,0,0,0,402.052,91.655ZM376.76,70.645a2.935,2.935,0,0,0,1.859,2.747,7.2,7.2,0,0,0,3.717.485,10.237,10.237,0,0,0,3.8-1.05,3.444,3.444,0,0,0,2.02-2.182,2.456,2.456,0,0,0-1.293-2.828,8.548,8.548,0,0,0-3.879-.808,10.661,10.661,0,0,0-4.2.97A3.049,3.049,0,0,0,376.76,70.645Z" transform="translate(-350.495 -46.888)" fill="#fd978f"/>
        <path id="Path_24" data-name="Path 24" d="M381.352,48.42a26.554,26.554,0,0,1,5.737.646,25.081,25.081,0,0,1,10.262,4.768,22.572,22.572,0,0,1,6.626,8.4,23.771,23.771,0,0,1,2.263,10.586,13.6,13.6,0,0,1-4.04,9.293,25.659,25.659,0,0,1-9.05,5.98,31.61,31.61,0,0,1-10.909,2.182h-.566a18.2,18.2,0,0,1-8.808-1.939c.4,3.151,1.374,5.576,2.99,7.192a9.147,9.147,0,0,0,6.222,2.828c.4,0,.808.081,1.293.081a22.78,22.78,0,0,0,7.515-1.455,47.072,47.072,0,0,0,10.666-5.818c.323,0,.566-.081.889-.081a6.266,6.266,0,0,1,3.8,1.374,10.156,10.156,0,0,1,3.151,4.364,10.771,10.771,0,0,1,.566,5.818,9.914,9.914,0,0,1-3.232,5.737,41.163,41.163,0,0,1-11.717,8.161,30.842,30.842,0,0,1-11.394,2.747h-.97a26.49,26.49,0,0,1-9.454-1.7,32.443,32.443,0,0,1-8.969-5.01,31.277,31.277,0,0,1-6.788-7.434,29.781,29.781,0,0,1-4.04-8.969,32.8,32.8,0,0,1-.97-5.9,58.942,58.942,0,0,1-.162-8.565,61.359,61.359,0,0,1,1.293-9.778,33.752,33.752,0,0,1,3.636-9.616,29.674,29.674,0,0,1,6.626-8,25.114,25.114,0,0,1,10.424-5.01,31.15,31.15,0,0,1,7.111-.889m-.242,25.05h.808a10.237,10.237,0,0,0,3.8-1.05,3.444,3.444,0,0,0,2.02-2.182,2.456,2.456,0,0,0-1.293-2.828,7.538,7.538,0,0,0-3.636-.808h-.242a10.661,10.661,0,0,0-4.2.97,2.877,2.877,0,0,0-1.939,2.667,2.935,2.935,0,0,0,1.859,2.747,7.684,7.684,0,0,0,2.828.485m.242-27.07a37.345,37.345,0,0,0-7.677.889A26.867,26.867,0,0,0,362.363,52.7a32.423,32.423,0,0,0-7.111,8.565,35.187,35.187,0,0,0-3.8,10.182,65.688,65.688,0,0,0-1.374,10.1,63.53,63.53,0,0,0,.162,8.889,36.113,36.113,0,0,0,1.05,6.222,31.723,31.723,0,0,0,4.364,9.535,35.65,35.65,0,0,0,7.273,7.919,34.461,34.461,0,0,0,9.535,5.333,28.855,28.855,0,0,0,10.262,1.778h.97a34.839,34.839,0,0,0,12.2-2.909,41.566,41.566,0,0,0,12.363-8.646,11.772,11.772,0,0,0,3.8-6.949,13.148,13.148,0,0,0-.727-6.869,11.952,11.952,0,0,0-3.8-5.252,8.068,8.068,0,0,0-5.091-1.859,5.335,5.335,0,0,0-1.131.081,2.9,2.9,0,0,0-.889.323,44.659,44.659,0,0,1-10.182,5.576,20.671,20.671,0,0,1-6.788,1.374,4.269,4.269,0,0,1-1.05-.081,7.24,7.24,0,0,1-4.929-2.263,7.326,7.326,0,0,1-1.535-2.424,22.141,22.141,0,0,0,5.818.646h.646a34.323,34.323,0,0,0,11.636-2.343,26.2,26.2,0,0,0,9.778-6.464A15.7,15.7,0,0,0,408.422,72.5V72.42A25.834,25.834,0,0,0,406,60.864a24.351,24.351,0,0,0-7.273-9.131,27.5,27.5,0,0,0-11.07-5.172c-2.1,0-4.2-.162-6.3-.162Zm-2.99,23.757c0-.162.081-.4.727-.727a9.493,9.493,0,0,1,3.313-.808h.242a5.423,5.423,0,0,1,2.667.566c.242.162.323.162.242.566,0,.081-.242.323-.889.646a7.98,7.98,0,0,1-2.99.889h-.646a6.531,6.531,0,0,1-2.182-.4c-.162,0-.4-.081-.485-.727Z" transform="translate(-349.996 -46.4)" fill="#fff"/>
      </g>
      <g id="Group_11" data-name="Group 11" transform="translate(339.709 27.636)">
        <path id="Path_25" data-name="Path 25" d="M433,55.541a7.514,7.514,0,0,1,4.444-4.687A19.168,19.168,0,0,1,444.07,49.4a17.71,17.71,0,0,1,6.06.889c1.778.646,2.747,1.293,2.828,2.1l-1.131,7.03a20.312,20.312,0,0,1,7.6-6.626A14.553,14.553,0,0,1,467.1,51.42a15.361,15.361,0,0,1,7.192,2.667,23.6,23.6,0,0,1,5.98,5.737,32.607,32.607,0,0,1,4.2,7.757,26.941,26.941,0,0,1,1.7,8.646,10.183,10.183,0,0,1-2.99,5.333,10.907,10.907,0,0,1-4.768,2.5,11.663,11.663,0,0,1-5.01.081,8.456,8.456,0,0,1-3.8-1.939c-.566-2.99-1.535-5.01-2.99-6.141a5.137,5.137,0,0,0-4.606-1.05,8.808,8.808,0,0,0-4.606,3.151,13.05,13.05,0,0,0-2.828,6.707v31.11q-.848,1.7-3.879,2.909a22.543,22.543,0,0,1-6.707,1.455,20.7,20.7,0,0,1-6.788-.566,4.963,4.963,0,0,1-3.879-3.394Z" transform="translate(-430.98 -47.299)" fill="#fd978f"/>
        <path id="Path_26" data-name="Path 26" d="M443.995,48.9a17.671,17.671,0,0,1,5.656.889c1.778.646,2.747,1.293,2.828,2.1l-1.131,7.03a20.313,20.313,0,0,1,7.6-6.626,14.93,14.93,0,0,1,6.3-1.455,7.393,7.393,0,0,1,1.374.081,15.361,15.361,0,0,1,7.192,2.667,23.6,23.6,0,0,1,5.98,5.737,32.6,32.6,0,0,1,4.2,7.757,26.941,26.941,0,0,1,1.7,8.646,10.183,10.183,0,0,1-2.99,5.333,10.907,10.907,0,0,1-4.768,2.5,10.038,10.038,0,0,1-2.667.323,11.537,11.537,0,0,1-2.343-.242,8.457,8.457,0,0,1-3.8-1.939c-.566-2.99-1.535-5.01-2.99-6.141a5.459,5.459,0,0,0-3.394-1.212,6.238,6.238,0,0,0-1.212.162,8.808,8.808,0,0,0-4.606,3.151,13.051,13.051,0,0,0-2.828,6.707v31.11q-.849,1.7-3.879,2.909a22.542,22.542,0,0,1-6.707,1.455,13.094,13.094,0,0,1-1.778.081,20.259,20.259,0,0,1-5.01-.646,4.963,4.963,0,0,1-3.879-3.394l-.323-60.847a7.514,7.514,0,0,1,4.444-4.687,19.168,19.168,0,0,1,6.626-1.455h.4m0-2.1h-.4a20.176,20.176,0,0,0-7.434,1.616,9.528,9.528,0,0,0-5.576,5.98,2.237,2.237,0,0,0-.081.727l.242,60.766a1.375,1.375,0,0,0,.081.566c.485,1.7,1.778,3.879,5.333,4.848a21.1,21.1,0,0,0,5.576.727,15.57,15.57,0,0,0,1.939-.081,25.86,25.86,0,0,0,7.273-1.616c2.586-1.05,4.283-2.343,5.01-3.959a1.6,1.6,0,0,0,.162-.889V84.456a12.542,12.542,0,0,1,2.343-5.576,7.078,7.078,0,0,1,3.555-2.5,2.492,2.492,0,0,1,.808-.081,3.132,3.132,0,0,1,2.1.808c.97.727,1.778,2.424,2.182,4.848a2.154,2.154,0,0,0,.566,1.131,10.012,10.012,0,0,0,4.767,2.5,10.849,10.849,0,0,0,2.828.323,14.037,14.037,0,0,0,3.151-.4,13.716,13.716,0,0,0,5.656-2.99,11.872,11.872,0,0,0,3.636-6.464,1.2,1.2,0,0,0,.081-.566,28.813,28.813,0,0,0-1.858-9.293,35.615,35.615,0,0,0-4.444-8.323,26.171,26.171,0,0,0-6.464-6.222,17.928,17.928,0,0,0-8.081-2.99,10.83,10.83,0,0,0-1.616-.081,17.622,17.622,0,0,0-10.747,3.8l.081-.4v-.566c-.242-2.5-3.232-3.475-4.2-3.8a27.761,27.761,0,0,0-6.465-.808Z" transform="translate(-430.5 -46.8)" fill="#fff"/>
      </g>
      <g id="Group_12" data-name="Group 12" transform="translate(399.71 27.878)">
        <path id="Path_27" data-name="Path 27" d="M510.118,115.526a13.43,13.43,0,0,1-2.667-5.818,16.093,16.093,0,0,1,.081-5.576,15.437,15.437,0,0,1,1.859-4.768,20.559,20.559,0,0,1,2.5-3.394c.242.646,1.131,1.212,2.667,1.859a34.228,34.228,0,0,0,5.495,1.7,34.587,34.587,0,0,0,6.464.889,14.6,14.6,0,0,0,5.576-.727,4.023,4.023,0,0,0,2.747-2.828c.323-1.374-.323-3.232-1.859-5.818-.323-.566-1.212-1.05-2.667-1.7-1.454-.566-3.151-1.212-5.091-2.02-1.939-.727-3.959-1.7-6.141-2.667a25.789,25.789,0,0,1-5.818-3.8,17.171,17.171,0,0,1-4.2-5.172,12.09,12.09,0,0,1-1.212-6.949,18.06,18.06,0,0,1,4.04-9.373,25.371,25.371,0,0,1,8.969-6.788,33.157,33.157,0,0,1,12.444-2.99,38.341,38.341,0,0,1,14.464,2.1,6.155,6.155,0,0,1,2.424,4.2,14.781,14.781,0,0,1-.081,5.656,14.327,14.327,0,0,1-1.7,4.848c-.727,1.374-1.616,1.859-2.5,1.7a14.82,14.82,0,0,0-4.929-.727,12.636,12.636,0,0,0-3.394.485,3.716,3.716,0,0,0-1.859,1.212,2.216,2.216,0,0,0-.566,1.455,3.9,3.9,0,0,0,.889,2.5,5.942,5.942,0,0,0,2.02,1.616,24.32,24.32,0,0,0,2.909,1.455q1.7.848,3.636,1.939a21.216,21.216,0,0,1,7.434,7.192,18.312,18.312,0,0,1,2.667,8.4,19.591,19.591,0,0,1-1.535,8.727,29.3,29.3,0,0,1-4.929,8,29.7,29.7,0,0,1-7.515,6.222,29.242,29.242,0,0,1-9.373,3.555,26.654,26.654,0,0,1-10.424-.081A26.369,26.369,0,0,1,510.118,115.526Z" transform="translate(-505.231 -47.568)" fill="#fd978f"/>
        <path id="Path_28" data-name="Path 28" d="M534.851,49.2a38.953,38.953,0,0,1,12.525,2.182,6.154,6.154,0,0,1,2.424,4.2,14.781,14.781,0,0,1-.081,5.656,14.328,14.328,0,0,1-1.7,4.848c-.646,1.131-1.374,1.7-2.1,1.7a.729.729,0,0,1-.4-.081,17.953,17.953,0,0,0-4.687-.727h-.242a12.636,12.636,0,0,0-3.394.485,3.716,3.716,0,0,0-1.859,1.212,2.217,2.217,0,0,0-.566,1.455,3.9,3.9,0,0,0,.889,2.5,5.941,5.941,0,0,0,2.02,1.616,24.316,24.316,0,0,0,2.909,1.455q1.7.848,3.636,1.939a21.215,21.215,0,0,1,7.434,7.192,18.311,18.311,0,0,1,2.667,8.4,19.591,19.591,0,0,1-1.535,8.727,29.3,29.3,0,0,1-4.929,8,29.7,29.7,0,0,1-7.515,6.222,29.242,29.242,0,0,1-9.373,3.555,23.49,23.49,0,0,1-4.848.485,27.409,27.409,0,0,1-5.656-.566,29.68,29.68,0,0,1-10.828-4.768,13.429,13.429,0,0,1-2.667-5.818,16.093,16.093,0,0,1,.081-5.576,15.438,15.438,0,0,1,1.859-4.768,20.555,20.555,0,0,1,2.5-3.394c.242.646,1.131,1.212,2.667,1.859a34.229,34.229,0,0,0,5.495,1.7,34.586,34.586,0,0,0,6.464.889h.808a13.761,13.761,0,0,0,4.768-.727,4.023,4.023,0,0,0,2.747-2.828c.323-1.374-.323-3.232-1.859-5.818-.323-.566-1.212-1.05-2.667-1.7-1.455-.566-3.151-1.212-5.091-2.02-1.939-.727-3.96-1.7-6.141-2.667a25.786,25.786,0,0,1-5.818-3.8,17.17,17.17,0,0,1-4.2-5.172,12.091,12.091,0,0,1-1.212-6.949,18.061,18.061,0,0,1,4.04-9.373,25.373,25.373,0,0,1,8.969-6.788,33.157,33.157,0,0,1,12.444-2.99,4.483,4.483,0,0,0,2.02.242m0-2.1a16.891,16.891,0,0,0-2.02.081,37.562,37.562,0,0,0-13.252,3.151,29.642,29.642,0,0,0-9.7,7.353,19.719,19.719,0,0,0-4.525,10.5v.081a14.533,14.533,0,0,0,1.455,8.081,18.781,18.781,0,0,0,4.687,5.737,27.044,27.044,0,0,0,6.3,4.04,67.979,67.979,0,0,0,6.3,2.747c1.939.727,3.636,1.455,5.091,2.02a7.9,7.9,0,0,1,1.616.808c1.859,2.909,1.7,3.96,1.616,4.121-.081.485-.4.97-1.454,1.374a11.585,11.585,0,0,1-4.04.566H526.2a29.613,29.613,0,0,1-6.06-.808,39.652,39.652,0,0,1-5.172-1.616,6.723,6.723,0,0,1-1.616-.889,2.1,2.1,0,0,0-1.454-1.131,3.5,3.5,0,0,1-.4-.081,2.024,2.024,0,0,0-1.455.646,16.569,16.569,0,0,0-2.828,3.8,18.894,18.894,0,0,0-2.1,5.414,18.254,18.254,0,0,0-.162,6.3,14.346,14.346,0,0,0,3.071,6.707l.485.485a32.035,32.035,0,0,0,11.636,5.091,30.9,30.9,0,0,0,6.06.646,28.224,28.224,0,0,0,5.252-.485,32.092,32.092,0,0,0,10.02-3.8,30.737,30.737,0,0,0,8-6.707,29.5,29.5,0,0,0,5.252-8.565,22.24,22.24,0,0,0,1.7-9.616,20.174,20.174,0,0,0-2.909-9.373,24.006,24.006,0,0,0-8.161-7.919h0c-1.374-.808-2.586-1.455-3.8-2.02a30.351,30.351,0,0,1-2.828-1.455,6.748,6.748,0,0,1-1.374-1.05,3.033,3.033,0,0,1-.4-1.131l.162-.162a2.657,2.657,0,0,1,.889-.485,8.222,8.222,0,0,1,2.747-.4h.242a17.794,17.794,0,0,1,4.121.646h.081a3.314,3.314,0,0,0,.889.081c1.05,0,2.667-.485,3.96-2.747a17.616,17.616,0,0,0,1.939-5.495,18.794,18.794,0,0,0,.081-6.384A8.513,8.513,0,0,0,548.83,49.6a1.206,1.206,0,0,0-.566-.242A45.321,45.321,0,0,0,534.851,47.1Z" transform="translate(-504.753 -47.1)" fill="#fff"/>
      </g>
      <g id="Group_18" data-name="Group 18" transform="translate(54.948 12.731)">
        <g id="Group_16" data-name="Group 16">
          <path id="Path_29" data-name="Path 29" d="M89.24,101.712l-1.778.566s-9.616-12.525-8.485-27.555c0,0,1.455-38.868,38.383-44.686,0,0,17.454-1.778,23.6,3.879l-38.3,30.464L94.816,96.944Z" transform="translate(-78.251 -28.627)" fill="#fefefe"/>
          <path id="Path_30" data-name="Path 30" d="M177.014,93.449l1.455-6.3,7.919-.646L182.67,99.429l-6.222,11.313-4.848-1.616Z" transform="translate(-96.046 -39.516)" fill="#fecb3c"/>
          <path id="Path_31" data-name="Path 31" d="M118.757,36.593s-1.212,1.778-2.343,2.1c0,0-29.413,6.949-29.413,45.575l2.1,8.565s.97,3.151-.485,8.727c0,0,16.727,22.464,40.241,19.959,0,0,28.282-12.121,31.918-30.625l7.677-25.777.808-6.788s-5.576-25.211-39.595-28.363h0s-5.414,2.263-7.03,2.828c0,0-9.293,1.293-13.818,6.06h0l9.939-2.263" transform="translate(-79.808 -28.396)" fill="#fecb3c"/>
          <path id="Path_32" data-name="Path 32" d="M178.609,61.2s-.566,12.04-4.525,18.585c0,0,5.98,28.12-32.484,46.868,0,0,4.848,3.313,21.9-7.111,0,0,12.121-7.111,16.4-20.525C179.983,98.936,188.548,84.876,178.609,61.2Z" transform="translate(-90.288 -34.66)" fill="#f9823c"/>
          <path id="Path_33" data-name="Path 33" d="M166.714,108.772a.605.605,0,0,1-.4-.081.8.8,0,0,1-.242-1.131c6.788-11.151,5.576-19.313,5.576-19.474a.777.777,0,0,1,1.535-.242c.081.323,1.293,8.808-5.737,20.525A.964.964,0,0,1,166.714,108.772Z" transform="translate(-94.958 -39.647)" fill="#3a2f3e"/>
          <path id="Path_34" data-name="Path 34" d="M190.467,91.184h0l-8-.485a1.054,1.054,0,1,1,.162-2.1l7.919.485a1.023,1.023,0,0,1,.97,1.131A1,1,0,0,1,190.467,91.184Z" transform="translate(-97.944 -39.917)" fill="#3a2f3e"/>
          <path id="Path_35" data-name="Path 35" d="M125.048,122.3A46.948,46.948,0,1,1,172,75.348,46.987,46.987,0,0,1,125.048,122.3Zm0-92.361A45.332,45.332,0,1,0,170.38,75.267,45.367,45.367,0,0,0,125.048,29.935Z" transform="translate(-78.1 -28.364)" fill="#3a2f3e"/>
          <path id="Path_36" data-name="Path 36" d="M189.356,74.888h-.081l-8.808-.808a1.1,1.1,0,1,1,.242-2.182l8.808.808a1.1,1.1,0,0,1,.97,1.212A1.273,1.273,0,0,1,189.356,74.888Z" transform="translate(-97.561 -36.711)" fill="#3a2f3e"/>
          <path id="Path_37" data-name="Path 37" d="M167.98,56.674a1.116,1.116,0,0,1-1.05-.808c0-.081-1.374-4.687-6.06-10.1-4.364-5.01-12.606-11.717-27.07-15.272a1.078,1.078,0,1,1,.485-2.1c15.111,3.717,23.757,10.828,28.282,16.08,5.01,5.737,6.384,10.666,6.384,10.828a1.038,1.038,0,0,1-.727,1.293A.3.3,0,0,1,167.98,56.674Z" transform="translate(-88.629 -28.356)" fill="#3a2f3e"/>
          <path id="Path_38" data-name="Path 38" d="M170.35,52.663a1.07,1.07,0,0,1-1.05-1.05,1.207,1.207,0,0,1,1.05-1.131l8.565-.081A1.092,1.092,0,0,1,179,52.582l-8.646.081Z" transform="translate(-95.605 -32.587)" fill="#3a2f3e"/>
          <path id="Path_39" data-name="Path 39" d="M183.789,114.571h0c-.081,0-1.778-.081-7.919-.889a1.1,1.1,0,0,1,.242-2.182c6.06.808,7.677.889,7.757.889a1.144,1.144,0,0,1,1.05,1.131A1.207,1.207,0,0,1,183.789,114.571Z" transform="translate(-96.68 -44.314)" fill="#3a2f3e"/>
          <rect id="Rectangle_1" data-name="Rectangle 1" width="1.616" height="8.565" transform="translate(68.929 80.981) rotate(-80.944)" fill="#3a2f3e"/>
          <path id="Path_40" data-name="Path 40" d="M137.141,139.536a1.116,1.116,0,0,1-1.051-.808,1.038,1.038,0,0,1,.727-1.293c16.646-4.444,26.666-18.585,26.747-18.747a1.1,1.1,0,0,1,1.778,1.293c-.4.646-10.586,14.949-27.959,19.555Z" transform="translate(-89.223 -45.603)" fill="#3a2f3e"/>
          <path id="Path_41" data-name="Path 41" d="M122.507,120.607a35.79,35.79,0,0,1-28.444-13.575,42.621,42.621,0,0,1-7.677-13.9v-.081a52.014,52.014,0,0,1,1.778-29.494,35.381,35.381,0,0,1,6.06-10.747,1.087,1.087,0,0,1,1.616,1.455,35.237,35.237,0,0,0-5.656,10.182,48.9,48.9,0,0,0-1.7,28.12,43.863,43.863,0,0,0,7.353,13.171,32.843,32.843,0,0,0,27.393,12.687h0a1.07,1.07,0,0,1,1.05,1.05,1.207,1.207,0,0,1-1.05,1.131Z" transform="translate(-79.438 -32.978)" fill="#3a2f3e"/>
          <path id="Path_42" data-name="Path 42" d="M160.031,64.763a1.05,1.05,0,0,1-.97-.646c-5.172-12.363-12.525-20.282-21.9-23.515-14.222-4.929-28.282,2.747-28.444,2.828a1.067,1.067,0,1,1-1.05-1.859c.646-.323,15.03-8.161,30.141-2.99C147.749,42.057,155.587,50.3,161,63.228a.985.985,0,0,1-.566,1.374A.522.522,0,0,1,160.031,64.763Z" transform="translate(-83.67 -29.981)" fill="#3a2f3e"/>
          <g id="Group_13" data-name="Group 13" transform="translate(12.765 23.936)">
            <path id="Path_43" data-name="Path 43" d="M114.741,61.882c2.343,2.1,4.283,4.929,6.869,6.707a23.278,23.278,0,0,0,13.656,3.555c2.747-.081,5.091-.97,7.677,0a11.831,11.831,0,0,1,7.273,9.373c1.131,6.626-2.747,13.495-7.192,18.181a25.116,25.116,0,0,1-16.888,7.677c-13.171.808-27.151-7.273-30.221-20.606-1.778-7.677-.727-17.939,5.01-23.838a10.407,10.407,0,0,1,1.374-1.293,9.41,9.41,0,0,1,6.626-2.343A8.826,8.826,0,0,1,114.741,61.882Z" transform="translate(-94.132 -58.227)" fill="#d07743"/>
            <path id="Path_44" data-name="Path 44" d="M124.2,108.257a32.843,32.843,0,0,1-17.7-5.252,27.117,27.117,0,0,1-11.8-16.242c-1.778-7.838-.889-18.585,5.252-24.807.485-.485.97-.97,1.455-1.374A10.427,10.427,0,0,1,108.768,58a10.066,10.066,0,0,1,6.384,2.909h0c.97.889,1.859,1.859,2.747,2.747a22.16,22.16,0,0,0,4.04,3.8,21.968,21.968,0,0,0,13.01,3.394,19.408,19.408,0,0,0,2.263-.242,11.109,11.109,0,0,1,5.818.323,13.284,13.284,0,0,1,8,10.182c1.05,5.98-1.778,13.171-7.434,19.151a26.17,26.17,0,0,1-17.616,8A13.038,13.038,0,0,0,124.2,108.257ZM108.283,60.016a8.985,8.985,0,0,0-5.495,2.1c-.485.4-.889.808-1.293,1.212-5.576,5.737-6.384,15.6-4.687,22.868,3.071,13.252,17.212,20.525,29.09,19.8a24.154,24.154,0,0,0,16.161-7.353c5.252-5.495,7.838-11.959,6.869-17.292a10.855,10.855,0,0,0-6.626-8.565,9.477,9.477,0,0,0-4.768-.162,23.94,23.94,0,0,1-2.505.242,23.6,23.6,0,0,1-14.3-3.717,21.939,21.939,0,0,1-4.444-4.2,26,26,0,0,0-2.586-2.586h0a7.943,7.943,0,0,0-5.091-2.343Z" transform="translate(-93.897 -57.977)" fill="#3a2f3e"/>
          </g>
          <g id="Group_14" data-name="Group 14" transform="translate(21.557 36.781)">
            <ellipse id="Ellipse_1" data-name="Ellipse 1" cx="9.212" cy="5.414" rx="9.212" ry="5.414" transform="translate(0 18.044) rotate(-78.206)" fill="#fdc33c"/>
            <path id="Path_45" data-name="Path 45" d="M110.893,94.177A3.314,3.314,0,0,1,110,94.1c-3.555-.727-5.414-5.737-4.283-11.394a14.594,14.594,0,0,1,3.151-6.545c1.616-1.778,3.555-2.586,5.333-2.182a5.909,5.909,0,0,1,4.04,4.121,13.709,13.709,0,0,1,.242,7.273,14.594,14.594,0,0,1-3.151,6.545A6.581,6.581,0,0,1,110.893,94.177ZM113.236,76a4.417,4.417,0,0,0-2.828,1.535,12.4,12.4,0,0,0-2.667,5.576c-.889,4.283.242,8.4,2.586,8.889,1.374.323,2.667-.808,3.313-1.535a12.4,12.4,0,0,0,2.667-5.576h0a11.963,11.963,0,0,0-.162-6.141c-.323-.889-1.05-2.424-2.424-2.747Z" transform="translate(-104.896 -73.874)" fill="#3a2f3e"/>
          </g>
          <g id="Group_15" data-name="Group 15" transform="translate(40.34 43.333)">
            <ellipse id="Ellipse_2" data-name="Ellipse 2" cx="9.212" cy="5.414" rx="9.212" ry="5.414" transform="translate(0 17.151) rotate(-68.574)" fill="#fdc33c"/>
            <path id="Path_46" data-name="Path 46" d="M134.516,102.6a3.618,3.618,0,0,1-1.616-.323c-3.394-1.293-4.363-6.626-2.263-11.959,2.1-5.414,6.384-8.565,9.778-7.192,3.394,1.293,4.364,6.626,2.263,11.959h0C140.981,99.608,137.587,102.6,134.516,102.6ZM138.8,84.982c-2.1,0-4.768,2.586-6.141,6.141-1.616,4.121-1.131,8.323,1.05,9.131,2.182.889,5.414-1.859,7.03-5.98h0c1.616-4.121,1.131-8.323-1.051-9.131A1.74,1.74,0,0,0,138.8,84.982Zm2.909,9.7Z" transform="translate(-128.312 -82.139)" fill="#3a2f3e"/>
          </g>
          <path id="Path_47" data-name="Path 47" d="M146.574,33.825s-2.343-3.071,3.959-2.182L135.1,29.3Z" transform="translate(-89.041 -28.537)" fill="#3a2f3e"/>
          <path id="Path_48" data-name="Path 48" d="M135.137,30.916s-1.131-.566-5.737-.566l1.455-1.05,4.768.808Z" transform="translate(-87.947 -28.537)" fill="#3a2f3e"/>
        </g>
        <g id="Group_17" data-name="Group 17" transform="translate(80.071 32.128)">
          <path id="Path_49" data-name="Path 49" d="M178.915,100.04a.3.3,0,0,1-.242-.081.841.841,0,0,1-.485-1.05c6.3-18.02.242-28.525.242-28.605a.818.818,0,0,1,.323-1.131.87.87,0,0,1,1.131.242c.242.485,6.464,11.232-.081,29.979A1.133,1.133,0,0,1,178.915,100.04Z" transform="translate(-177.373 -68.295)" fill="#3a2f3e"/>
          <path id="Path_50" data-name="Path 50" d="M178.734,100.587a1.025,1.025,0,0,1-.485-.081,1.469,1.469,0,0,1-.889-.808,1.585,1.585,0,0,1-.081-1.212c6.06-17.535.323-27.878.242-27.959a1.681,1.681,0,0,1,.566-2.182,1.6,1.6,0,0,1,2.182.566c.242.485,6.626,11.555,0,30.625A1.657,1.657,0,0,1,178.734,100.587Zm.162-30.868c0,.162,6.222,10.909-.162,29.333h0C185.2,80.628,179.138,70.123,178.9,69.719Z" transform="translate(-177.191 -68.115)" fill="#3a2f3e"/>
        </g>
      </g>
    </g>
  </g>
</svg>
